<?xml version="1.0" encoding="UTF-8" standalone="no"?>
<svg width="612px" height="792px" viewBox="0 0 612 792"
 xmlns="http://www.w3.org/2000/svg" xmlns:xlink="http://www.w3.org/1999/xlink" version="1.2" baseProfile="tiny">
<title>C大调音阶（右手）</title>
<desc>Generated by MuseScore 2.3.2</desc>
<polyline class="StaffLines" fill="none" stroke="#000000" stroke-width="0.40" stroke-linejoin="bevel" points="28.3465,113.347 583.654,113.347"/>
<polyline class="StaffLines" fill="none" stroke="#000000" stroke-width="0.40" stroke-linejoin="bevel" points="28.3465,118.347 583.654,118.347"/>
<polyline class="StaffLines" fill="none" stroke="#000000" stroke-width="0.40" stroke-linejoin="bevel" points="28.3465,123.347 583.654,123.347"/>
<polyline class="StaffLines" fill="none" stroke="#000000" stroke-width="0.40" stroke-linejoin="bevel" points="28.3465,128.347 583.654,128.347"/>
<polyline class="StaffLines" fill="none" stroke="#000000" stroke-width="0.40" stroke-linejoin="bevel" points="28.3465,133.347 583.654,133.347"/>
<path class="Text" d="M202.796,45.5465 C202.796,43.0505 203.564,41.0225 205.1,39.4625 C206.636,37.9025 208.548,37.1225 210.836,37.1225 C211.86,37.1225 212.82,37.2545 213.716,37.5185 C214.612,37.7825 215.132,37.9145 215.276,37.9145 C215.804,37.9145 216.14,37.6505 216.284,37.1225 L216.788,37.1225 L217.004,42.5465 L216.452,42.5465 C215.572,39.5705 213.852,38.0825 211.292,38.0825 C209.548,38.0825 208.16,38.7305 207.128,40.0265 C206.096,41.3225 205.58,43.0585 205.58,45.2345 C205.58,46.6265 205.76,47.8305 206.12,48.8465 C206.48,49.8625 206.964,50.6305 207.572,51.1505 C208.18,51.6705 208.808,52.0465 209.456,52.2785 C210.104,52.5105 210.796,52.6265 211.532,52.6265 C213.42,52.6265 215.204,51.8185 216.884,50.2025 L217.316,50.6345 C216.58,51.6105 215.644,52.3625 214.508,52.8905 C213.372,53.4185 212.124,53.6825 210.764,53.6825 C208.396,53.6825 206.476,52.9385 205.004,51.4505 C203.532,49.9625 202.796,47.9945 202.796,45.5465"/>
<path class="Text" d="M230.154,43.2425 C229.834,45.7865 229.302,47.8865 228.558,49.5425 C227.814,51.1985 226.63,52.6785 225.006,53.9825 C223.382,55.2865 221.514,56.2585 219.402,56.8985 L219.258,56.4665 C222.106,55.0745 224.306,53.2545 225.858,51.0065 C227.41,48.7585 228.282,46.1705 228.474,43.2425 L222.282,43.2425 C221.61,43.2425 221.066,43.3305 220.65,43.5065 L219.762,42.4505 C220.37,42.5305 221.042,42.5705 221.778,42.5705 L228.522,42.5705 C228.618,41.1945 228.666,39.8225 228.666,38.4545 C228.666,37.0864 228.65,35.7945 228.618,34.5785 L231.21,35.6585 C231.482,35.7705 231.618,35.8705 231.618,35.9584 C231.618,36.0465 231.51,36.1505 231.294,36.2705 C231.078,36.3905 230.93,36.5545 230.85,36.7625 C230.77,36.9704 230.682,37.7145 230.586,38.9945 C230.49,40.2745 230.378,41.4665 230.25,42.5705 L237.09,42.5705 L238.674,40.6505 L240.498,42.8345 C240.61,42.9465 240.666,43.0425 240.666,43.1225 C240.666,43.2025 240.554,43.2425 240.33,43.2425 L231.354,43.2425 C232.49,49.4025 235.642,53.0665 240.81,54.2345 L240.786,54.6425 C240.338,54.6745 239.906,54.8185 239.49,55.0745 C239.074,55.3305 238.786,55.5985 238.626,55.8785 C238.466,56.1585 238.322,56.2985 238.194,56.2985 C237.97,56.2985 237.138,55.6945 235.698,54.4865 C234.258,53.2785 233.154,51.8465 232.386,50.1905 C231.618,48.5345 231.09,46.2185 230.802,43.2425 L230.154,43.2425 M245.13,35.3225 C246.474,35.8985 247.35,36.3544 247.758,36.6905 C248.166,37.0265 248.37,37.4184 248.37,37.8665 C248.37,38.3145 248.222,38.7185 247.926,39.0785 C247.63,39.4385 247.31,39.6185 246.966,39.6185 C246.622,39.6185 246.426,39.3545 246.378,38.8265 C246.266,37.5945 245.794,36.5225 244.962,35.6105 L245.13,35.3225 M253.002,36.8825 L261.978,36.8825 L262.746,35.8025 L264.45,37.0744 C264.61,37.2024 264.69,37.3184 264.69,37.4225 C264.69,37.5265 264.594,37.6265 264.402,37.7225 L263.778,38.0585 L263.778,54.2585 C263.778,54.8345 263.702,55.2785 263.55,55.5905 C263.398,55.9025 263.042,56.2385 262.482,56.5985 C261.922,56.9585 261.582,57.1385 261.462,57.1385 C261.342,57.1385 261.25,57.0025 261.186,56.7305 C261.106,56.2345 260.886,55.8545 260.526,55.5905 C260.166,55.3265 259.378,55.0265 258.162,54.6905 L258.234,54.3305 C259.466,54.5225 260.322,54.6185 260.802,54.6185 C261.282,54.6185 261.618,54.5585 261.81,54.4385 C262.002,54.3185 262.098,54.0665 262.098,53.6825 L262.098,37.5545 L252.762,37.5545 L252.762,44.9465 C252.762,47.5065 252.618,49.4945 252.33,50.9105 C252.042,52.3265 251.494,53.5065 250.686,54.4505 C249.878,55.3945 248.634,56.3865 246.954,57.4265 L246.69,57.0905 C248.066,56.0025 249.054,55.0345 249.654,54.1865 C250.254,53.3385 250.65,52.2665 250.842,50.9705 C251.034,49.6745 251.13,47.7065 251.13,45.0665 L251.13,38.1545 C251.13,37.3225 251.106,36.4745 251.058,35.6105 L253.002,36.8825 M257.97,41.8745 L257.97,44.5145 L259.506,44.5145 L260.61,43.1705 L261.834,44.6825 C261.962,44.8105 262.026,44.9225 262.026,45.0185 C262.026,45.1145 261.914,45.1625 261.69,45.1625 L255.306,45.1625 C254.65,45.1625 254.106,45.2505 253.674,45.4265 L252.834,44.3945 C253.426,44.4745 254.09,44.5145 254.826,44.5145 L256.338,44.5145 L256.338,41.8745 L255.642,41.8745 C254.97,41.8745 254.426,41.9625 254.01,42.1385 L253.17,41.1065 C253.762,41.1865 254.426,41.2265 255.162,41.2264 L256.338,41.2264 L256.338,40.5305 C256.338,39.6345 256.314,38.7625 256.266,37.9145 L258.138,38.3465 C258.378,38.3945 258.498,38.4545 258.498,38.5265 C258.498,38.5985 258.418,38.6985 258.258,38.8265 L257.97,39.0185 L257.97,41.2264 L259.098,41.2264 L260.106,39.9545 L261.282,41.3945 C261.394,41.5225 261.45,41.6345 261.45,41.7305 C261.45,41.8265 261.338,41.8745 261.114,41.8745 L257.97,41.8745 M250.674,49.5305 C249.57,50.6345 248.654,51.6265 247.926,52.5065 C247.198,53.3865 246.754,53.9905 246.594,54.3185 C246.434,54.6465 246.31,54.8105 246.222,54.8105 C246.134,54.8105 246.026,54.7065 245.898,54.4985 L244.986,52.8425 C245.338,52.7145 245.59,52.5545 245.742,52.3625 C245.894,52.1705 245.97,51.7945 245.97,51.2345 L245.97,43.2665 L244.914,43.2665 C244.21,43.2665 243.666,43.3705 243.282,43.5785 L242.418,42.5225 C243.17,42.5705 243.842,42.5945 244.434,42.5945 L246.09,42.5945 L246.738,41.4185 L248.154,42.5465 C248.378,42.7225 248.49,42.8585 248.49,42.9545 C248.49,43.0505 248.386,43.1385 248.178,43.2185 L247.65,43.4585 L247.65,51.1865 L250.458,49.1705 L250.674,49.5305 M255.594,47.2745 L258.618,47.2745 L259.218,46.3625 L260.634,47.4425 C260.778,47.5705 260.85,47.6785 260.85,47.7665 C260.85,47.8545 260.778,47.9385 260.634,48.0185 L260.226,48.2585 L260.226,49.1945 C260.226,49.7225 260.25,50.2105 260.298,50.6585 L260.37,51.8105 C260.37,52.0665 260.15,52.3265 259.71,52.5905 C259.27,52.8545 258.978,52.9865 258.834,52.9865 C258.69,52.9865 258.618,52.8745 258.618,52.6505 L258.618,51.7385 L255.858,51.7385 L255.858,52.5545 C255.858,52.7625 255.814,52.9225 255.726,53.0345 C255.638,53.1465 255.426,53.2865 255.09,53.4545 C254.754,53.6225 254.518,53.7065 254.382,53.7065 C254.246,53.7065 254.178,53.6025 254.178,53.3945 C254.178,53.1865 254.19,52.7985 254.214,52.2305 C254.238,51.6625 254.25,50.8105 254.25,49.6745 L254.25,48.6425 C254.25,47.9865 254.226,47.2425 254.178,46.4105 L255.594,47.2745 M258.618,51.0425 L258.618,47.9465 L255.858,47.9465 L255.858,51.0425 L258.618,51.0425 M275.97,34.8185 C276.882,35.0265 277.606,35.2745 278.142,35.5625 C278.678,35.8505 278.946,36.2425 278.946,36.7385 C278.946,37.6185 278.586,38.0585 277.866,38.0585 C277.434,38.0585 277.162,37.7865 277.05,37.2425 C276.874,36.3785 276.458,35.6745 275.802,35.1305 L275.97,34.8185 M270.306,38.4905 L284.106,38.4905 L285.618,36.6905 L287.322,38.7305 C287.434,38.8585 287.49,38.9585 287.49,39.0305 C287.49,39.1025 287.378,39.1385 287.154,39.1385 L270.81,39.1385 C270.154,39.1385 269.618,39.2185 269.202,39.3785 L268.362,38.3465 C268.938,38.4425 269.586,38.4905 270.306,38.4905 M279.33,44.1305 C280.498,42.3065 281.314,40.6825 281.778,39.2585 L283.698,40.3625 C283.89,40.4745 283.986,40.5825 283.986,40.6865 C283.986,40.7905 283.858,40.8585 283.602,40.8905 C283.186,40.9545 282.018,42.0345 280.098,44.1305 L285.474,44.1305 L287.106,42.2105 L288.93,44.3945 C289.042,44.5385 289.098,44.6425 289.098,44.7065 C289.098,44.7705 288.986,44.8025 288.762,44.8025 L269.418,44.8025 C268.794,44.8025 268.258,44.8905 267.81,45.0665 L266.946,44.0105 C267.538,44.0905 268.186,44.1305 268.89,44.1305 L279.33,44.1305 M272.826,39.5705 C274.842,40.6905 275.85,41.6025 275.85,42.3065 C275.85,42.7385 275.726,43.1065 275.478,43.4105 C275.23,43.7145 274.942,43.8665 274.614,43.8665 C274.286,43.8665 274.098,43.6665 274.05,43.2665 C273.89,42.0185 273.394,40.8985 272.562,39.9065 L272.826,39.5705 M273.762,47.0105 L281.994,47.0105 L282.882,45.9305 L284.562,47.2025 C284.674,47.2825 284.73,47.3745 284.73,47.4785 C284.73,47.5825 284.674,47.6745 284.562,47.7545 L283.986,48.1865 L283.986,53.2505 C283.986,53.8585 284.002,54.3945 284.034,54.8585 L284.106,55.9145 C284.106,56.2025 283.842,56.4585 283.314,56.6825 C282.786,56.9065 282.47,57.0185 282.366,57.0185 C282.262,57.0185 282.21,56.8985 282.21,56.6585 L282.21,55.3865 L273.642,55.3865 L273.642,56.0585 C273.642,56.2505 273.598,56.4025 273.51,56.5145 C273.422,56.6265 273.206,56.7625 272.862,56.9225 C272.518,57.0825 272.262,57.1625 272.094,57.1625 C271.926,57.1625 271.842,56.9945 271.842,56.6585 C271.842,56.5625 271.858,56.2625 271.89,55.7585 C271.922,55.2545 271.938,54.4105 271.938,53.2265 L271.938,47.9945 C271.938,47.3385 271.906,46.6105 271.842,45.8105 L273.762,47.0105 M282.21,50.8025 L282.21,47.6585 L273.642,47.6585 L273.642,50.8025 L282.21,50.8025 M282.21,54.7385 L282.21,51.4745 L273.642,51.4745 L273.642,54.7385 L282.21,54.7385 M304.986,37.7225 C303.85,39.8185 302.854,41.3985 301.998,42.4625 C301.142,43.5265 300.018,44.5705 298.626,45.5945 L298.362,45.2825 C299.562,44.0985 300.678,42.5785 301.71,40.7225 C302.742,38.8665 303.498,36.9785 303.978,35.0585 L305.826,35.8505 C306.13,36.0105 306.282,36.1305 306.282,36.2105 C306.282,36.2905 306.162,36.3705 305.922,36.4505 C305.746,36.5465 305.554,36.7545 305.346,37.0744 C306.242,38.7865 307.29,40.1065 308.49,41.0345 C309.69,41.9625 311.17,42.5785 312.93,42.8825 L312.954,43.1945 C311.898,43.5625 311.306,43.9385 311.178,44.3225 C311.13,44.4825 311.058,44.5625 310.962,44.5625 C310.754,44.5625 310.182,44.2465 309.246,43.6145 C308.31,42.9825 307.474,42.1825 306.738,41.2145 C306.002,40.2465 305.418,39.0825 304.986,37.7225 M294.258,37.3625 L296.802,37.3625 L297.714,35.9464 L299.442,37.3385 C299.602,37.4665 299.682,37.5825 299.682,37.6865 C299.682,37.7905 299.594,37.8665 299.418,37.9145 C298.89,38.0425 298.362,38.5865 297.834,39.5465 L295.722,43.4105 C296.778,44.2905 297.59,45.1425 298.158,45.9665 C298.726,46.7905 299.01,47.4505 299.01,47.9465 C299.01,49.3705 298.63,50.3665 297.87,50.9345 C297.11,51.5025 296.618,51.7865 296.394,51.7865 C296.25,51.7865 296.178,51.6585 296.178,51.4025 C296.178,50.9705 296.018,50.6385 295.698,50.4065 C295.378,50.1745 294.922,49.9705 294.33,49.7945 L294.378,49.4105 C294.97,49.4745 295.502,49.5065 295.974,49.5065 C296.446,49.5065 296.798,49.4225 297.03,49.2545 C297.262,49.0865 297.378,48.7865 297.378,48.3545 C297.378,47.0585 296.594,45.4345 295.026,43.4825 L296.874,38.0585 L293.874,38.0585 L293.874,51.4265 C293.874,53.0585 293.886,54.1825 293.91,54.7985 C293.934,55.4145 293.946,55.7545 293.946,55.8185 C293.946,56.1545 293.714,56.4505 293.25,56.7065 C292.786,56.9625 292.474,57.0905 292.314,57.0905 C292.154,57.0905 292.074,56.9065 292.074,56.5385 L292.218,53.9945 C292.266,52.8905 292.29,51.8665 292.29,50.9225 L292.29,39.8585 C292.29,38.5785 292.258,37.2985 292.194,36.0185 L294.258,37.3625 M308.898,45.1145 L308.49,45.3065 L308.49,51.5225 C308.49,53.1225 308.502,54.2385 308.526,54.8705 C308.55,55.5025 308.562,55.8505 308.562,55.9145 C308.562,56.2345 308.342,56.4905 307.902,56.6825 C307.462,56.8745 307.142,56.9705 306.942,56.9705 C306.742,56.9705 306.642,56.7865 306.642,56.4185 L306.762,54.0425 C306.81,52.9705 306.834,51.9545 306.834,50.9945 L306.834,46.8665 C306.834,46.0025 306.802,44.9385 306.738,43.6745 L308.778,44.5865 C309.002,44.6985 309.114,44.7985 309.114,44.8865 C309.114,44.9745 309.042,45.0505 308.898,45.1145 M301.602,43.8425 L303.45,44.4905 C303.722,44.5865 303.858,44.6905 303.858,44.8025 C303.858,44.9145 303.754,45.0745 303.546,45.2825 C303.338,45.4905 303.234,46.1305 303.234,47.2025 C303.218,49.8105 302.934,51.6545 302.382,52.7345 C301.83,53.8145 301.014,54.6705 299.934,55.3025 C298.854,55.9345 297.53,56.5305 295.962,57.0905 L295.818,56.6825 C297.514,55.8505 298.77,55.0585 299.586,54.3065 C300.402,53.5545 300.954,52.6665 301.242,51.6425 C301.53,50.6185 301.674,48.9385 301.674,46.6025 C301.674,45.7225 301.65,44.8025 301.602,43.8425 M335.298,35.4185 L335.61,36.0425 C334.026,37.4985 332.898,39.0585 332.226,40.7225 C331.554,42.3865 331.218,44.1625 331.218,46.0505 C331.218,46.9945 331.31,47.9305 331.494,48.8585 C331.678,49.7865 331.95,50.6785 332.31,51.5345 C332.67,52.3905 333.118,53.2065 333.654,53.9825 C334.19,54.7585 334.818,55.4585 335.538,56.0825 L335.25,56.6345 C334.45,56.0425 333.722,55.3465 333.066,54.5465 C332.41,53.7465 331.85,52.8825 331.386,51.9545 C330.922,51.0265 330.562,50.0545 330.306,49.0385 C330.05,48.0225 329.922,46.9945 329.922,45.9545 C329.922,44.9305 330.046,43.9065 330.294,42.8825 C330.542,41.8585 330.898,40.8825 331.362,39.9545 C331.826,39.0265 332.39,38.1745 333.054,37.3985 C333.718,36.6225 334.466,35.9625 335.298,35.4185 M349.05,40.7945 C348.266,42.7305 347.354,44.4745 346.314,46.0265 L347.274,46.4105 L355.386,46.4105 L356.154,45.1385 L358.242,46.6025 C358.402,46.6985 358.482,46.7945 358.482,46.8905 C358.482,46.9865 358.402,47.0745 358.242,47.1545 L357.57,47.5865 L357.57,53.3945 C357.57,53.9545 357.594,54.4665 357.642,54.9305 L357.714,56.0585 C357.714,56.3145 357.43,56.5785 356.862,56.8505 C356.294,57.1225 355.946,57.2585 355.818,57.2585 C355.69,57.2585 355.626,57.1225 355.626,56.8505 L355.626,54.6665 L347.034,54.6665 L347.034,56.2265 C347.034,56.4185 346.982,56.5745 346.878,56.6945 C346.774,56.8145 346.534,56.9585 346.158,57.1265 C345.782,57.2945 345.526,57.3785 345.39,57.3785 C345.254,57.3785 345.186,57.2265 345.186,56.9225 L345.234,55.6505 C345.25,55.1385 345.258,54.3545 345.258,53.2985 L345.258,47.4425 C343.466,49.7625 341.338,51.5865 338.874,52.9145 L338.586,52.5785 C342.426,49.8105 345.274,45.8825 347.13,40.7945 L341.658,40.7945 C340.986,40.7945 340.442,40.8825 340.026,41.0585 L339.162,39.9785 C339.754,40.0745 340.418,40.1225 341.154,40.1225 L347.37,40.1225 C347.898,38.5865 348.362,36.8585 348.762,34.9385 L351.162,36.0665 C351.29,36.1465 351.354,36.2465 351.354,36.3665 C351.354,36.4865 351.258,36.5624 351.066,36.5945 C350.874,36.6265 350.682,36.8424 350.49,37.2425 C350.298,37.6425 349.906,38.6025 349.314,40.1225 L357.042,40.1225 L358.818,37.9865 L360.81,40.3625 C360.922,40.5065 360.978,40.6145 360.978,40.6865 C360.978,40.7585 360.866,40.7945 360.642,40.7945 L349.05,40.7945 M355.626,53.9705 L355.626,47.0825 L347.034,47.0825 L347.034,53.9705 L355.626,53.9705 M373.482,43.0025 L368.082,43.0025 C367.426,43.0025 366.898,43.0905 366.498,43.2665 L365.658,42.2105 C366.234,42.3065 366.882,42.3545 367.602,42.3544 L373.482,42.3544 L373.482,38.1785 C370.442,38.3865 367.594,38.4665 364.938,38.4185 L364.914,38.0825 C373.234,37.2185 378.522,36.3225 380.778,35.3945 L382.074,37.0025 C382.25,37.2264 382.338,37.3745 382.338,37.4465 C382.338,37.5185 382.29,37.5545 382.194,37.5545 C382.098,37.5545 381.966,37.5385 381.798,37.5065 C381.63,37.4745 381.454,37.4585 381.27,37.4585 C381.086,37.4585 380.422,37.5185 379.278,37.6385 C378.134,37.7585 376.786,37.8825 375.234,38.0105 L375.234,42.3544 L379.194,42.3544 L380.61,40.6265 L382.266,42.6185 C382.362,42.7145 382.41,42.8025 382.41,42.8825 C382.41,42.9625 382.298,43.0025 382.074,43.0025 L375.234,43.0025 L375.234,47.1545 L381.714,47.1545 L383.274,45.2825 L385.098,47.3945 C385.194,47.5225 385.242,47.6305 385.242,47.7185 C385.242,47.8065 385.13,47.8505 384.906,47.8505 L375.234,47.8505 L375.234,54.0425 C375.234,54.5225 375.162,54.8865 375.018,55.1345 C374.874,55.3825 374.478,55.7145 373.83,56.1305 C373.182,56.5465 372.814,56.7545 372.726,56.7545 C372.638,56.7545 372.562,56.6505 372.498,56.4425 C372.322,55.8185 371.974,55.3745 371.454,55.1105 C370.934,54.8465 370.162,54.6425 369.138,54.4985 L369.162,54.1385 C370.234,54.2345 371.11,54.2825 371.79,54.2825 C372.47,54.2825 372.922,54.2185 373.146,54.0905 C373.37,53.9625 373.482,53.7625 373.482,53.4905 L373.482,47.8505 L365.754,47.8505 C365.05,47.8505 364.522,47.9225 364.17,48.0665 L363.306,47.0105 C363.898,47.1065 364.538,47.1545 365.226,47.1545 L373.482,47.1545 L373.482,43.0025 M389.586,35.3465 C390.418,35.8905 391.166,36.5545 391.83,37.3385 C392.494,38.1225 393.058,38.9745 393.522,39.8945 C393.986,40.8145 394.342,41.7865 394.59,42.8105 C394.838,43.8345 394.962,44.8585 394.962,45.8825 C394.962,46.9225 394.834,47.9505 394.578,48.9665 C394.322,49.9825 393.962,50.9585 393.498,51.8945 C393.034,52.8305 392.474,53.6985 391.818,54.4985 C391.162,55.2985 390.434,55.9865 389.634,56.5625 L389.346,56.0105 C390.066,55.3865 390.694,54.6905 391.23,53.9225 C391.766,53.1545 392.218,52.3385 392.586,51.4745 C392.954,50.6105 393.23,49.7145 393.414,48.7865 C393.598,47.8585 393.69,46.9225 393.69,45.9785 C393.69,44.0905 393.35,42.3145 392.67,40.6505 C391.99,38.9865 390.858,37.4265 389.274,35.9704 L389.586,35.3465 "/>
<polyline class="BarLine" fill="none" stroke="#000000" stroke-width="0.80" stroke-linejoin="bevel" points="578.754,113.347 578.754,133.347"/>
<polyline class="BarLine" fill="none" stroke="#000000" stroke-width="2.50" stroke-linejoin="bevel" points="582.404,113.347 582.404,133.347"/>
<polyline class="BarLine" fill="none" stroke="#000000" stroke-width="0.80" stroke-linejoin="bevel" points="468.252,113.347 468.252,133.347"/>
<polyline class="BarLine" fill="none" stroke="#000000" stroke-width="0.80" stroke-linejoin="bevel" points="334.613,113.347 334.613,133.347"/>
<polyline class="BarLine" fill="none" stroke="#000000" stroke-width="0.80" stroke-linejoin="bevel" points="188.973,113.347 188.973,133.347"/>
<polyline class="LedgerLine" fill="none" stroke="#000000" stroke-width="0.80" stroke-linecap="square" stroke-linejoin="bevel" points="539.876,138.347 549.819,138.347"/>
<polyline class="LedgerLine" fill="none" stroke="#000000" stroke-width="0.80" stroke-linecap="square" stroke-linejoin="bevel" points="339.513,108.347 349.095,108.347"/>
<polyline class="LedgerLine" fill="none" stroke="#000000" stroke-width="0.80" stroke-linecap="square" stroke-linejoin="bevel" points="315.358,108.347 324.94,108.347"/>
<polyline class="LedgerLine" fill="none" stroke="#000000" stroke-width="0.80" stroke-linecap="square" stroke-linejoin="bevel" points="298.003,103.346 307.586,103.346"/>
<polyline class="LedgerLine" fill="none" stroke="#000000" stroke-width="0.80" stroke-linecap="square" stroke-linejoin="bevel" points="298.003,108.347 307.586,108.347"/>
<polyline class="LedgerLine" fill="none" stroke="#000000" stroke-width="0.80" stroke-linecap="square" stroke-linejoin="bevel" points="280.648,108.347 290.231,108.347"/>
<polyline class="LedgerLine" fill="none" stroke="#000000" stroke-width="0.80" stroke-linecap="square" stroke-linejoin="bevel" points="263.293,108.347 272.876,108.347"/>
<polyline class="LedgerLine" fill="none" stroke="#000000" stroke-width="0.80" stroke-linecap="square" stroke-linejoin="bevel" points="64.434,138.347 74.0168,138.347"/>
<polyline class="Stem" fill="none" stroke="#000000" stroke-width="0.65" stroke-linecap="round" stroke-linejoin="bevel" points="547.994,137.579 547.994,120.847"/>
<polyline class="Stem" fill="none" stroke="#000000" stroke-width="0.65" stroke-linecap="round" stroke-linejoin="bevel" points="531.088,134.907 531.088,119.597"/>
<polyline class="Stem" fill="none" stroke="#000000" stroke-width="0.65" stroke-linecap="round" stroke-linejoin="bevel" points="514.362,132.407 514.362,117.513"/>
<polyline class="Stem" fill="none" stroke="#000000" stroke-width="0.65" stroke-linecap="round" stroke-linejoin="bevel" points="497.636,129.907 497.636,115.43"/>
<polyline class="Stem" fill="none" stroke="#000000" stroke-width="0.65" stroke-linecap="round" stroke-linejoin="bevel" points="480.91,127.407 480.91,113.347"/>
<polyline class="Stem" fill="none" stroke="#000000" stroke-width="0.65" stroke-linecap="round" stroke-linejoin="bevel" points="452.322,126.786 452.322,139.597"/>
<polyline class="Stem" fill="none" stroke="#000000" stroke-width="0.65" stroke-linecap="round" stroke-linejoin="bevel" points="436.467,124.286 436.467,137.93"/>
<polyline class="Stem" fill="none" stroke="#000000" stroke-width="0.65" stroke-linecap="round" stroke-linejoin="bevel" points="420.612,121.786 420.612,136.263"/>
<polyline class="Stem" fill="none" stroke="#000000" stroke-width="0.65" stroke-linecap="round" stroke-linejoin="bevel" points="404.757,119.286 404.757,134.597"/>
<polyline class="Stem" fill="none" stroke="#000000" stroke-width="0.65" stroke-linecap="round" stroke-linejoin="bevel" points="388.902,116.786 388.902,132.097"/>
<polyline class="Stem" fill="none" stroke="#000000" stroke-width="0.65" stroke-linecap="round" stroke-linejoin="bevel" points="373.047,114.286 373.047,130.013"/>
<polyline class="Stem" fill="none" stroke="#000000" stroke-width="0.65" stroke-linecap="round" stroke-linejoin="bevel" points="357.192,111.786 357.192,127.93"/>
<polyline class="Stem" fill="none" stroke="#000000" stroke-width="0.65" stroke-linecap="round" stroke-linejoin="bevel" points="341.338,109.286 341.338,125.847"/>
<polyline class="Stem" fill="none" stroke="#000000" stroke-width="0.65" stroke-linecap="round" stroke-linejoin="bevel" points="317.183,106.786 317.183,122.097"/>
<polyline class="Stem" fill="none" stroke="#000000" stroke-width="0.65" stroke-linecap="round" stroke-linejoin="bevel" points="299.828,104.286 299.828,122.513"/>
<polyline class="Stem" fill="none" stroke="#000000" stroke-width="0.65" stroke-linecap="round" stroke-linejoin="bevel" points="282.473,106.786 282.473,122.93"/>
<polyline class="Stem" fill="none" stroke="#000000" stroke-width="0.65" stroke-linecap="round" stroke-linejoin="bevel" points="265.118,109.286 265.118,123.347"/>
<polyline class="Stem" fill="none" stroke="#000000" stroke-width="0.65" stroke-linecap="round" stroke-linejoin="bevel" points="247.763,111.786 247.763,127.097"/>
<polyline class="Stem" fill="none" stroke="#000000" stroke-width="0.65" stroke-linecap="round" stroke-linejoin="bevel" points="230.408,114.286 230.408,129.18"/>
<polyline class="Stem" fill="none" stroke="#000000" stroke-width="0.65" stroke-linecap="round" stroke-linejoin="bevel" points="213.053,116.786 213.053,131.263"/>
<polyline class="Stem" fill="none" stroke="#000000" stroke-width="0.65" stroke-linecap="round" stroke-linejoin="bevel" points="195.698,119.286 195.698,133.347"/>
<polyline class="Stem" fill="none" stroke="#000000" stroke-width="0.65" stroke-linecap="round" stroke-linejoin="bevel" points="179.501,119.907 179.501,104.596"/>
<polyline class="Stem" fill="none" stroke="#000000" stroke-width="0.65" stroke-linecap="round" stroke-linejoin="bevel" points="164.171,122.407 164.171,106.263"/>
<polyline class="Stem" fill="none" stroke="#000000" stroke-width="0.65" stroke-linecap="round" stroke-linejoin="bevel" points="148.841,124.907 148.841,107.93"/>
<polyline class="Stem" fill="none" stroke="#000000" stroke-width="0.65" stroke-linecap="round" stroke-linejoin="bevel" points="133.511,127.407 133.511,109.597"/>
<polyline class="Stem" fill="none" stroke="#000000" stroke-width="0.65" stroke-linecap="round" stroke-linejoin="bevel" points="118.182,129.907 118.182,117.097"/>
<polyline class="Stem" fill="none" stroke="#000000" stroke-width="0.65" stroke-linecap="round" stroke-linejoin="bevel" points="102.852,132.407 102.852,119.18"/>
<polyline class="Stem" fill="none" stroke="#000000" stroke-width="0.65" stroke-linecap="round" stroke-linejoin="bevel" points="87.5217,134.907 87.5217,121.263"/>
<polyline class="Stem" fill="none" stroke="#000000" stroke-width="0.65" stroke-linecap="round" stroke-linejoin="bevel" points="72.1918,137.407 72.1918,123.347"/>
<path class="Note" d="M547.684,137.038 C547.684,136.817 547.6,136.628 547.43,136.472 C547.261,136.302 547.066,136.218 546.844,136.218 C546.454,136.218 545.666,136.608 544.481,137.389 C543.257,138.184 542.508,138.75 542.235,139.089 C542.092,139.271 542.02,139.46 542.02,139.655 C542.02,139.876 542.105,140.065 542.274,140.222 C542.43,140.391 542.626,140.475 542.86,140.475 C543.238,140.475 544.032,140.085 545.243,139.304 C546.441,138.522 547.183,137.956 547.469,137.604 C547.613,137.435 547.684,137.246 547.684,137.038 M546.649,135.593 C547.769,135.593 548.329,136.074 548.329,137.038 C548.329,137.507 548.192,138.054 547.919,138.679 C547.645,139.291 547.281,139.759 546.825,140.085 C545.822,140.762 544.566,141.1 543.055,141.1 C541.936,141.1 541.376,140.619 541.376,139.655 C541.376,139.225 541.512,138.685 541.786,138.034 C542.046,137.409 542.411,136.934 542.88,136.608 C543.882,135.931 545.139,135.593 546.649,135.593"/>
<path class="Note" d="M529.225,133.093 C529.85,133.093 530.377,133.255 530.807,133.581 C531.21,133.932 531.412,134.375 531.412,134.909 C531.412,135.807 530.95,136.647 530.025,137.429 C529.088,138.21 528.085,138.6 527.018,138.6 C526.393,138.6 525.865,138.438 525.436,138.112 C525.032,137.761 524.83,137.318 524.83,136.784 C524.83,135.886 525.299,135.046 526.236,134.264 C527.148,133.483 528.144,133.093 529.225,133.093"/>
<path class="Note" d="M512.499,130.593 C513.124,130.593 513.651,130.755 514.081,131.081 C514.484,131.432 514.686,131.875 514.686,132.409 C514.686,133.307 514.224,134.147 513.299,134.929 C512.362,135.71 511.359,136.1 510.291,136.1 C509.666,136.1 509.139,135.938 508.709,135.612 C508.306,135.261 508.104,134.818 508.104,134.284 C508.104,133.386 508.573,132.546 509.51,131.764 C510.422,130.983 511.418,130.593 512.499,130.593"/>
<path class="Note" d="M495.772,128.093 C496.397,128.093 496.925,128.255 497.354,128.581 C497.758,128.932 497.96,129.375 497.96,129.909 C497.96,130.807 497.498,131.647 496.573,132.429 C495.636,133.21 494.633,133.6 493.565,133.6 C492.94,133.6 492.413,133.438 491.983,133.112 C491.58,132.761 491.378,132.318 491.378,131.784 C491.378,130.886 491.847,130.046 492.784,129.264 C493.696,128.483 494.692,128.093 495.772,128.093"/>
<path class="Note" d="M479.046,125.593 C479.671,125.593 480.199,125.755 480.628,126.081 C481.032,126.432 481.234,126.875 481.234,127.409 C481.234,128.307 480.772,129.147 479.847,129.929 C478.91,130.71 477.907,131.1 476.839,131.1 C476.214,131.1 475.687,130.938 475.257,130.612 C474.854,130.261 474.652,129.818 474.652,129.284 C474.652,128.386 475.121,127.546 476.058,126.764 C476.97,125.983 477.966,125.593 479.046,125.593"/>
<path class="Note" d="M456.391,123.093 C457.016,123.093 457.544,123.255 457.973,123.581 C458.377,123.932 458.579,124.375 458.579,124.909 C458.579,125.807 458.117,126.647 457.192,127.429 C456.255,128.21 455.252,128.6 454.184,128.6 C453.559,128.6 453.032,128.438 452.602,128.112 C452.199,127.761 451.997,127.318 451.997,126.784 C451.997,125.886 452.466,125.046 453.403,124.264 C454.315,123.483 455.311,123.093 456.391,123.093"/>
<path class="Note" d="M440.537,120.593 C441.162,120.593 441.689,120.755 442.119,121.081 C442.522,121.432 442.724,121.875 442.724,122.409 C442.724,123.307 442.262,124.147 441.337,124.929 C440.4,125.71 439.397,126.1 438.329,126.1 C437.704,126.1 437.177,125.938 436.747,125.612 C436.344,125.261 436.142,124.818 436.142,124.284 C436.142,123.386 436.611,122.546 437.548,121.764 C438.46,120.983 439.456,120.593 440.537,120.593"/>
<path class="Note" d="M424.682,118.093 C425.307,118.093 425.834,118.255 426.264,118.581 C426.667,118.932 426.869,119.375 426.869,119.909 C426.869,120.807 426.407,121.647 425.482,122.429 C424.545,123.21 423.542,123.6 422.475,123.6 C421.85,123.6 421.322,123.438 420.893,123.112 C420.489,122.761 420.287,122.318 420.287,121.784 C420.287,120.886 420.756,120.046 421.693,119.264 C422.605,118.483 423.601,118.093 424.682,118.093"/>
<path class="Note" d="M408.827,115.593 C409.452,115.593 409.979,115.755 410.409,116.081 C410.812,116.432 411.014,116.875 411.014,117.409 C411.014,118.307 410.552,119.147 409.627,119.929 C408.69,120.71 407.687,121.1 406.62,121.1 C405.995,121.1 405.467,120.938 405.038,120.612 C404.634,120.261 404.432,119.818 404.432,119.284 C404.432,118.386 404.901,117.546 405.838,116.764 C406.75,115.983 407.746,115.593 408.827,115.593"/>
<path class="Note" d="M392.972,113.093 C393.597,113.093 394.124,113.255 394.554,113.581 C394.957,113.932 395.159,114.375 395.159,114.909 C395.159,115.807 394.697,116.647 393.773,117.429 C392.835,118.21 391.832,118.6 390.765,118.6 C390.14,118.6 389.612,118.438 389.183,118.112 C388.779,117.761 388.577,117.318 388.577,116.784 C388.577,115.886 389.046,115.046 389.983,114.264 C390.895,113.483 391.891,113.093 392.972,113.093"/>
<path class="Note" d="M377.117,110.593 C377.742,110.593 378.269,110.755 378.699,111.081 C379.103,111.432 379.304,111.875 379.304,112.409 C379.304,113.307 378.842,114.147 377.918,114.929 C376.98,115.71 375.978,116.1 374.91,116.1 C374.285,116.1 373.757,115.938 373.328,115.612 C372.924,115.261 372.722,114.818 372.722,114.284 C372.722,113.386 373.191,112.546 374.129,111.764 C375.04,110.983 376.036,110.593 377.117,110.593"/>
<path class="Note" d="M361.262,108.093 C361.887,108.093 362.414,108.255 362.844,108.581 C363.248,108.932 363.449,109.375 363.449,109.909 C363.449,110.807 362.987,111.647 362.063,112.429 C361.125,113.21 360.123,113.6 359.055,113.6 C358.43,113.6 357.903,113.438 357.473,113.112 C357.069,112.761 356.867,112.318 356.867,111.784 C356.867,110.886 357.336,110.046 358.274,109.264 C359.185,108.483 360.181,108.093 361.262,108.093"/>
<path class="Note" d="M345.407,105.593 C346.032,105.593 346.559,105.755 346.989,106.081 C347.393,106.432 347.595,106.875 347.595,107.409 C347.595,108.307 347.132,109.147 346.208,109.929 C345.27,110.71 344.268,111.1 343.2,111.1 C342.575,111.1 342.048,110.938 341.618,110.612 C341.214,110.261 341.013,109.818 341.013,109.284 C341.013,108.386 341.481,107.546 342.419,106.764 C343.33,105.983 344.326,105.593 345.407,105.593"/>
<path class="Note" d="M321.252,103.093 C321.877,103.093 322.404,103.255 322.834,103.581 C323.238,103.932 323.44,104.375 323.44,104.909 C323.44,105.807 322.977,106.647 322.053,107.429 C321.115,108.21 320.113,108.6 319.045,108.6 C318.42,108.6 317.893,108.438 317.463,108.112 C317.059,107.761 316.858,107.318 316.858,106.784 C316.858,105.886 317.326,105.046 318.264,104.264 C319.175,103.483 320.171,103.093 321.252,103.093"/>
<path class="Note" d="M303.897,100.593 C304.522,100.593 305.05,100.755 305.479,101.081 C305.883,101.432 306.085,101.875 306.085,102.409 C306.085,103.307 305.622,104.147 304.698,104.929 C303.761,105.71 302.758,106.1 301.69,106.1 C301.065,106.1 300.538,105.938 300.108,105.612 C299.705,105.261 299.503,104.818 299.503,104.284 C299.503,103.386 299.971,102.546 300.909,101.764 C301.82,100.983 302.817,100.593 303.897,100.593"/>
<path class="Note" d="M286.542,103.093 C287.167,103.093 287.695,103.255 288.124,103.581 C288.528,103.932 288.73,104.375 288.73,104.909 C288.73,105.807 288.268,106.647 287.343,107.429 C286.406,108.21 285.403,108.6 284.335,108.6 C283.71,108.6 283.183,108.438 282.753,108.112 C282.35,107.761 282.148,107.318 282.148,106.784 C282.148,105.886 282.617,105.046 283.554,104.264 C284.465,103.483 285.462,103.093 286.542,103.093"/>
<path class="Note" d="M269.187,105.593 C269.812,105.593 270.34,105.755 270.769,106.081 C271.173,106.432 271.375,106.875 271.375,107.409 C271.375,108.307 270.913,109.147 269.988,109.929 C269.051,110.71 268.048,111.1 266.98,111.1 C266.355,111.1 265.828,110.938 265.398,110.612 C264.995,110.261 264.793,109.818 264.793,109.284 C264.793,108.386 265.262,107.546 266.199,106.764 C267.111,105.983 268.107,105.593 269.187,105.593"/>
<path class="Note" d="M251.833,108.093 C252.458,108.093 252.985,108.255 253.415,108.581 C253.818,108.932 254.02,109.375 254.02,109.909 C254.02,110.807 253.558,111.647 252.633,112.429 C251.696,113.21 250.693,113.6 249.625,113.6 C249,113.6 248.473,113.438 248.043,113.112 C247.64,112.761 247.438,112.318 247.438,111.784 C247.438,110.886 247.907,110.046 248.844,109.264 C249.756,108.483 250.752,108.093 251.833,108.093"/>
<path class="Note" d="M234.478,110.593 C235.103,110.593 235.63,110.755 236.06,111.081 C236.463,111.432 236.665,111.875 236.665,112.409 C236.665,113.307 236.203,114.147 235.278,114.929 C234.341,115.71 233.338,116.1 232.271,116.1 C231.646,116.1 231.118,115.938 230.689,115.612 C230.285,115.261 230.083,114.818 230.083,114.284 C230.083,113.386 230.552,112.546 231.489,111.764 C232.401,110.983 233.397,110.593 234.478,110.593"/>
<path class="Note" d="M217.123,113.093 C217.748,113.093 218.275,113.255 218.705,113.581 C219.108,113.932 219.31,114.375 219.31,114.909 C219.31,115.807 218.848,116.647 217.923,117.429 C216.986,118.21 215.983,118.6 214.916,118.6 C214.291,118.6 213.763,118.438 213.334,118.112 C212.93,117.761 212.728,117.318 212.728,116.784 C212.728,115.886 213.197,115.046 214.134,114.264 C215.046,113.483 216.042,113.093 217.123,113.093"/>
<path class="Note" d="M199.768,115.593 C200.393,115.593 200.92,115.755 201.35,116.081 C201.753,116.432 201.955,116.875 201.955,117.409 C201.955,118.307 201.493,119.147 200.569,119.929 C199.631,120.71 198.628,121.1 197.561,121.1 C196.936,121.1 196.408,120.938 195.979,120.612 C195.575,120.261 195.373,119.818 195.373,119.284 C195.373,118.386 195.842,117.546 196.779,116.764 C197.691,115.983 198.687,115.593 199.768,115.593"/>
<path class="Note" d="M177.638,118.093 C178.263,118.093 178.79,118.255 179.22,118.581 C179.624,118.932 179.825,119.375 179.825,119.909 C179.825,120.807 179.363,121.647 178.439,122.429 C177.501,123.21 176.499,123.6 175.431,123.6 C174.806,123.6 174.278,123.438 173.849,123.112 C173.445,122.761 173.243,122.318 173.243,121.784 C173.243,120.886 173.712,120.046 174.65,119.264 C175.561,118.483 176.557,118.093 177.638,118.093"/>
<path class="Note" d="M162.308,120.593 C162.933,120.593 163.46,120.755 163.89,121.081 C164.294,121.432 164.495,121.875 164.495,122.409 C164.495,123.307 164.033,124.147 163.109,124.929 C162.171,125.71 161.169,126.1 160.101,126.1 C159.476,126.1 158.949,125.938 158.519,125.612 C158.115,125.261 157.913,124.818 157.913,124.284 C157.913,123.386 158.382,122.546 159.32,121.764 C160.231,120.983 161.227,120.593 162.308,120.593"/>
<path class="Note" d="M146.978,123.093 C147.603,123.093 148.13,123.255 148.56,123.581 C148.964,123.932 149.166,124.375 149.166,124.909 C149.166,125.807 148.703,126.647 147.779,127.429 C146.841,128.21 145.839,128.6 144.771,128.6 C144.146,128.6 143.619,128.438 143.189,128.112 C142.785,127.761 142.584,127.318 142.584,126.784 C142.584,125.886 143.052,125.046 143.99,124.264 C144.901,123.483 145.897,123.093 146.978,123.093"/>
<path class="Note" d="M131.648,125.593 C132.273,125.593 132.8,125.755 133.23,126.081 C133.634,126.432 133.836,126.875 133.836,127.409 C133.836,128.307 133.373,129.147 132.449,129.929 C131.511,130.71 130.509,131.1 129.441,131.1 C128.816,131.1 128.289,130.938 127.859,130.612 C127.455,130.261 127.254,129.818 127.254,129.284 C127.254,128.386 127.722,127.546 128.66,126.764 C129.571,125.983 130.567,125.593 131.648,125.593"/>
<path class="Note" d="M116.318,128.093 C116.943,128.093 117.471,128.255 117.9,128.581 C118.304,128.932 118.506,129.375 118.506,129.909 C118.506,130.807 118.043,131.647 117.119,132.429 C116.182,133.21 115.179,133.6 114.111,133.6 C113.486,133.6 112.959,133.438 112.529,133.112 C112.126,132.761 111.924,132.318 111.924,131.784 C111.924,130.886 112.392,130.046 113.33,129.264 C114.241,128.483 115.238,128.093 116.318,128.093"/>
<path class="Note" d="M100.988,130.593 C101.613,130.593 102.141,130.755 102.57,131.081 C102.974,131.432 103.176,131.875 103.176,132.409 C103.176,133.307 102.714,134.147 101.789,134.929 C100.852,135.71 99.849,136.1 98.7813,136.1 C98.1563,136.1 97.6289,135.938 97.1993,135.612 C96.7956,135.261 96.5938,134.818 96.5938,134.284 C96.5938,133.386 97.0625,132.546 98,131.764 C98.9115,130.983 99.9076,130.593 100.988,130.593"/>
<path class="Note" d="M85.6584,133.093 C86.2834,133.093 86.8108,133.255 87.2404,133.581 C87.6441,133.932 87.8459,134.375 87.8459,134.909 C87.8459,135.807 87.3837,136.647 86.4592,137.429 C85.5217,138.21 84.5191,138.6 83.4514,138.6 C82.8264,138.6 82.299,138.438 81.8694,138.112 C81.4657,137.761 81.2639,137.318 81.2639,136.784 C81.2639,135.886 81.7326,135.046 82.6701,134.264 C83.5816,133.483 84.5777,133.093 85.6584,133.093"/>
<path class="Note" d="M70.3285,135.593 C70.9535,135.593 71.4808,135.755 71.9105,136.081 C72.3142,136.432 72.516,136.875 72.516,137.409 C72.516,138.307 72.0538,139.147 71.1293,139.929 C70.1918,140.71 69.1892,141.1 68.1215,141.1 C67.4965,141.1 66.9691,140.938 66.5394,140.612 C66.1358,140.261 65.934,139.818 65.934,139.284 C65.934,138.386 66.4027,137.546 67.3402,136.764 C68.2517,135.983 69.2478,135.593 70.3285,135.593"/>
<path class="Clef" d="M38.8902,123.229 C38.8902,123.229 38.9293,123.229 39.0074,123.229 C39.0595,123.216 39.105,123.21 39.1441,123.21 C40.6024,123.21 41.8004,123.724 42.7379,124.753 C43.6754,125.768 44.1441,126.953 44.1441,128.307 C44.1441,129.987 43.4475,131.354 42.0543,132.409 C41.6897,132.695 41.2144,132.93 40.6285,133.112 C40.6936,133.958 40.7261,134.642 40.7261,135.163 C40.7261,135.267 40.7131,135.645 40.6871,136.296 C40.635,137.507 40.2183,138.555 39.4371,139.44 C38.6819,140.313 37.7444,140.749 36.6246,140.749 C35.5699,140.749 34.6715,140.378 33.9293,139.636 C33.1871,138.88 32.816,137.969 32.816,136.901 C32.816,136.341 33.0308,135.866 33.4605,135.475 C33.9032,135.085 34.4175,134.889 35.0035,134.889 C35.5243,134.889 35.9605,135.091 36.3121,135.495 C36.6767,135.873 36.859,136.341 36.859,136.901 C36.859,137.409 36.6767,137.845 36.3121,138.21 C35.9475,138.574 35.5113,138.757 35.0035,138.757 C34.7951,138.757 34.5933,138.718 34.398,138.639 C34.9709,139.486 35.7326,139.909 36.6832,139.909 C37.5816,139.909 38.3173,139.544 38.8902,138.815 C39.4892,138.06 39.8147,137.181 39.8668,136.179 C39.8928,135.554 39.9058,135.195 39.9058,135.104 C39.9058,134.375 39.8798,133.776 39.8277,133.307 C39.1767,133.412 38.5972,133.464 38.0894,133.464 C36.2795,133.464 34.7366,132.748 33.4605,131.315 C32.2105,129.87 31.5855,128.151 31.5855,126.159 C31.5855,125.742 31.6246,125.319 31.7027,124.889 C31.7808,124.538 31.8785,124.154 31.9957,123.737 C32.0608,123.503 32.2366,123.125 32.523,122.604 C32.6272,122.448 32.7444,122.253 32.8746,122.018 C33.0048,121.784 33.0959,121.628 33.148,121.55 C33.2782,121.289 33.5321,120.938 33.9097,120.495 C34.0139,120.378 34.1213,120.248 34.232,120.104 C34.3427,119.961 34.4371,119.844 34.5152,119.753 C34.5933,119.662 34.6519,119.59 34.691,119.538 C34.73,119.486 35.023,119.141 35.5699,118.503 C35.7001,118.373 35.8271,118.233 35.9507,118.083 C36.0744,117.933 36.1754,117.816 36.2535,117.731 C36.3316,117.647 36.3902,117.585 36.4293,117.546 C35.9605,115.996 35.6675,114.759 35.5504,113.835 C35.4592,113.093 35.4136,112.077 35.4136,110.788 C35.4136,109.655 35.6741,108.594 36.1949,107.604 C36.7027,106.576 37.4123,105.736 38.3238,105.085 C38.3889,105.046 38.454,105.026 38.5191,105.026 C38.6103,105.026 38.6754,105.046 38.7144,105.085 C39.4175,105.931 40.023,107.031 40.5308,108.386 C41.0517,109.74 41.3121,110.97 41.3121,112.077 C41.3121,113.327 41.0126,114.499 40.4136,115.593 C39.7366,116.751 38.8642,117.949 37.7965,119.186 C38.0699,120.046 38.4345,121.393 38.8902,123.229 M40.5504,132.311 C41.2274,132.064 41.7548,131.641 42.1324,131.042 C42.5491,130.469 42.7574,129.824 42.7574,129.108 C42.7574,128.184 42.4449,127.363 41.8199,126.647 C41.1819,125.905 40.3681,125.488 39.3785,125.397 C39.9384,128.145 40.329,130.449 40.5504,132.311 M32.9918,127.8 C32.9918,129.089 33.5126,130.222 34.5543,131.198 C35.622,132.149 36.8199,132.624 38.148,132.624 C38.6949,132.624 39.2287,132.585 39.7496,132.507 C39.5412,130.528 39.1311,128.158 38.5191,125.397 C37.7769,125.475 37.1845,125.736 36.7418,126.179 C36.3121,126.634 36.0972,127.149 36.0972,127.722 C36.0972,128.711 36.6246,129.512 37.6793,130.124 C37.7704,130.215 37.816,130.313 37.816,130.417 C37.816,130.521 37.7704,130.619 37.6793,130.71 C37.6011,130.801 37.5035,130.847 37.3863,130.847 C37.3733,130.847 37.3147,130.833 37.2105,130.807 C36.4683,130.404 35.8954,129.883 35.4918,129.245 C35.1142,128.568 34.9254,127.884 34.9254,127.194 C34.9254,126.296 35.2053,125.482 35.7652,124.753 C36.3511,124.024 37.1129,123.555 38.0504,123.347 C37.6858,121.888 37.3863,120.749 37.1519,119.929 C36.9436,120.163 36.6929,120.446 36.4,120.778 C36.107,121.11 35.9345,121.309 35.8824,121.374 C35.4136,121.986 35.0556,122.461 34.8082,122.8 C34.3655,123.412 34.0399,123.939 33.8316,124.382 C33.6103,124.876 33.4149,125.417 33.2457,126.003 C33.0764,126.563 32.9918,127.162 32.9918,127.8 M39.5152,107.936 C38.5386,108.418 37.7704,109.108 37.2105,110.007 C36.6376,110.931 36.3511,111.927 36.3511,112.995 C36.3511,113.932 36.5855,115.195 37.0543,116.784 C37.9918,115.651 38.6949,114.603 39.1636,113.639 C39.6584,112.624 39.9058,111.563 39.9058,110.456 C39.9058,109.623 39.7756,108.783 39.5152,107.936"/>
<path class="TimeSig" d="M53.6762,113.6 C54.0668,113.6 54.3988,113.555 54.6722,113.464 C54.9457,113.373 55.1215,113.327 55.1996,113.327 C55.2907,113.327 55.3623,113.353 55.4144,113.405 C55.4535,113.444 55.4795,113.49 55.4926,113.542 C55.4926,113.568 55.4795,113.607 55.4535,113.659 L49.7699,120.261 L53.1097,120.261 L53.1097,117.643 C53.1097,117.474 53.1553,117.331 53.2465,117.214 C53.4027,117.083 53.5329,117.005 53.6371,116.979 C53.8064,116.901 54.0147,116.719 54.2621,116.432 C54.4704,116.198 54.7178,115.788 55.0043,115.202 C55.0433,115.124 55.1019,115.085 55.1801,115.085 C55.3363,115.085 55.4275,115.176 55.4535,115.358 L55.4535,120.261 L56.8793,120.261 C57.0616,120.261 57.1657,120.358 57.1918,120.554 C57.1918,120.749 57.0876,120.847 56.8793,120.847 L55.4535,120.847 L55.4535,121.003 C55.4535,121.524 55.5837,121.966 55.8441,122.331 C56.1436,122.695 56.4952,122.878 56.8988,122.878 C57.0551,122.878 57.1332,122.956 57.1332,123.112 C57.1332,123.268 57.0551,123.347 56.8988,123.347 C56.6254,123.347 56.1827,123.307 55.5707,123.229 C55.0108,123.138 54.5746,123.093 54.2621,123.093 C53.9366,123.093 53.5004,123.138 52.9535,123.229 C52.3676,123.307 51.9314,123.347 51.6449,123.347 C51.4887,123.347 51.4105,123.268 51.4105,123.112 C51.4105,122.956 51.4887,122.878 51.6449,122.878 C52.0485,122.878 52.4001,122.695 52.6996,122.331 C52.973,121.966 53.1097,121.524 53.1097,121.003 L53.1097,120.847 L49.7699,120.847 C49.5485,120.847 49.3923,120.794 49.3012,120.69 C49.197,120.612 49.1449,120.508 49.1449,120.378 C49.1449,120.339 49.2426,120.202 49.4379,119.968 C49.6592,119.707 49.8936,119.388 50.141,119.011 C50.4275,118.568 50.7009,118.112 50.9613,117.643 C51.2478,117.11 51.4756,116.498 51.6449,115.807 C51.8402,115.104 51.9379,114.388 51.9379,113.659 C51.9379,113.451 52.029,113.347 52.2113,113.347 C52.2504,113.347 52.335,113.366 52.4652,113.405 C52.5043,113.418 52.5857,113.438 52.7094,113.464 C52.8331,113.49 52.934,113.516 53.0121,113.542 C53.2465,113.581 53.4678,113.6 53.6762,113.6"/>
<path class="TimeSig" d="M53.6762,123.6 C54.0668,123.6 54.3988,123.555 54.6722,123.464 C54.9457,123.373 55.1215,123.327 55.1996,123.327 C55.2907,123.327 55.3623,123.353 55.4144,123.405 C55.4535,123.444 55.4795,123.49 55.4926,123.542 C55.4926,123.568 55.4795,123.607 55.4535,123.659 L49.7699,130.261 L53.1097,130.261 L53.1097,127.643 C53.1097,127.474 53.1553,127.331 53.2465,127.214 C53.4027,127.083 53.5329,127.005 53.6371,126.979 C53.8064,126.901 54.0147,126.719 54.2621,126.432 C54.4704,126.198 54.7178,125.788 55.0043,125.202 C55.0433,125.124 55.1019,125.085 55.1801,125.085 C55.3363,125.085 55.4275,125.176 55.4535,125.358 L55.4535,130.261 L56.8793,130.261 C57.0616,130.261 57.1657,130.358 57.1918,130.554 C57.1918,130.749 57.0876,130.847 56.8793,130.847 L55.4535,130.847 L55.4535,131.003 C55.4535,131.524 55.5837,131.966 55.8441,132.331 C56.1436,132.695 56.4952,132.878 56.8988,132.878 C57.0551,132.878 57.1332,132.956 57.1332,133.112 C57.1332,133.268 57.0551,133.347 56.8988,133.347 C56.6254,133.347 56.1827,133.307 55.5707,133.229 C55.0108,133.138 54.5746,133.093 54.2621,133.093 C53.9366,133.093 53.5004,133.138 52.9535,133.229 C52.3676,133.307 51.9314,133.347 51.6449,133.347 C51.4887,133.347 51.4105,133.268 51.4105,133.112 C51.4105,132.956 51.4887,132.878 51.6449,132.878 C52.0485,132.878 52.4001,132.695 52.6996,132.331 C52.973,131.966 53.1097,131.524 53.1097,131.003 L53.1097,130.847 L49.7699,130.847 C49.5485,130.847 49.3923,130.794 49.3012,130.69 C49.197,130.612 49.1449,130.508 49.1449,130.378 C49.1449,130.339 49.2426,130.202 49.4379,129.968 C49.6592,129.707 49.8936,129.388 50.141,129.011 C50.4275,128.568 50.7009,128.112 50.9613,127.643 C51.2478,127.11 51.4756,126.498 51.6449,125.807 C51.8402,125.104 51.9379,124.388 51.9379,123.659 C51.9379,123.451 52.029,123.347 52.2113,123.347 C52.2504,123.347 52.335,123.366 52.4652,123.405 C52.5043,123.418 52.5857,123.438 52.7094,123.464 C52.8331,123.49 52.934,123.516 53.0121,123.542 C53.2465,123.581 53.4678,123.6 53.6762,123.6"/>
<path class="Beam" fill-rule="evenodd" d="M480.585,112.016 L531.413,118.347 L531.413,120.847 L480.585,114.516 L480.585,112.016 "/>
<path class="Beam" fill-rule="evenodd" d="M404.432,133.347 L452.647,138.415 L452.647,140.915 L404.432,135.847 L404.432,133.347 "/>
<path class="Beam" fill-rule="evenodd" d="M341.013,124.597 L389.227,130.932 L389.227,133.432 L341.013,127.097 L341.013,124.597 "/>
<path class="Beam" fill-rule="evenodd" d="M264.793,122.097 L317.508,120.831 L317.508,123.331 L264.793,124.597 L264.793,122.097 "/>
<path class="Beam" fill-rule="evenodd" d="M195.373,132.097 L248.088,125.768 L248.088,128.268 L195.373,134.597 L195.373,132.097 "/>
<path class="Beam" fill-rule="evenodd" d="M133.186,108.417 L179.826,103.346 L179.826,105.846 L133.186,110.917 L133.186,108.417 "/>
<path class="Beam" fill-rule="evenodd" d="M71.8668,122.185 L118.507,115.847 L118.507,118.347 L71.8668,124.685 L71.8668,122.185 "/>
<path class="Fingering" d="M546.312,111.271 C546.216,111.271 546.024,111.329 545.736,111.447 L545.736,111.335 L547.176,110.607 L547.24,110.623 L547.24,115.423 C547.24,115.615 547.288,115.74 547.384,115.799 C547.48,115.857 547.685,115.889 548,115.895 L548,116.015 L545.792,116.015 L545.792,115.895 C546.09,115.884 546.292,115.84 546.396,115.763 C546.5,115.685 546.552,115.521 546.552,115.271 L546.552,111.647 C546.552,111.396 546.472,111.271 546.312,111.271"/>
<path class="Fingering" d="M512.043,112.169 C512.166,112.169 512.349,112.244 512.591,112.393 C512.834,112.542 513.046,112.617 513.227,112.617 C513.521,112.617 513.769,112.502 513.971,112.273 C514.174,112.044 514.275,111.761 514.275,111.425 C514.275,111.217 514.239,111.033 514.167,110.873 C514.095,110.713 514.003,110.589 513.891,110.501 C513.779,110.413 513.646,110.341 513.491,110.285 C513.337,110.229 513.191,110.193 513.055,110.177 C512.919,110.161 512.774,110.153 512.619,110.153 L512.619,110.049 C512.801,109.985 512.957,109.922 513.087,109.861 C513.218,109.8 513.355,109.717 513.499,109.613 C513.643,109.509 513.754,109.382 513.831,109.233 C513.909,109.084 513.947,108.913 513.947,108.721 C513.947,108.47 513.866,108.265 513.703,108.105 C513.541,107.945 513.329,107.865 513.067,107.865 C512.817,107.865 512.597,107.933 512.407,108.069 C512.218,108.205 512.041,108.42 511.875,108.713 L511.755,108.681 C511.894,108.302 512.082,107.992 512.319,107.749 C512.557,107.506 512.894,107.385 513.331,107.385 C513.699,107.385 513.999,107.486 514.231,107.689 C514.463,107.892 514.579,108.156 514.579,108.481 C514.579,108.7 514.523,108.892 514.411,109.057 C514.299,109.222 514.105,109.398 513.827,109.585 C514.147,109.724 514.398,109.901 514.579,110.117 C514.761,110.333 514.851,110.641 514.851,111.041 C514.851,111.606 514.642,112.058 514.223,112.397 C513.805,112.736 513.278,112.905 512.643,112.905 C512.366,112.905 512.146,112.864 511.983,112.781 C511.821,112.698 511.739,112.588 511.739,112.449 C511.739,112.364 511.767,112.296 511.823,112.245 C511.879,112.194 511.953,112.169 512.043,112.169"/>
<path class="Fingering" d="M441.209,116.489 L441.209,117.001 L440.393,117.001 L440.393,118.337 L439.777,118.337 L439.777,117.001 L437.529,117.001 L437.529,116.489 L440.041,112.929 L440.393,112.929 L440.393,116.489 L441.209,116.489 M439.769,116.489 L439.769,113.745 L437.849,116.489 L439.769,116.489 "/>
<path class="Fingering" d="M423.042,111.093 C422.946,111.093 422.754,111.152 422.466,111.269 L422.466,111.157 L423.906,110.429 L423.97,110.445 L423.97,115.245 C423.97,115.437 424.018,115.562 424.114,115.621 C424.21,115.68 424.416,115.712 424.73,115.717 L424.73,115.837 L422.522,115.837 L422.522,115.717 C422.821,115.706 423.022,115.662 423.126,115.585 C423.23,115.508 423.282,115.344 423.282,115.093 L423.282,111.469 C423.282,111.218 423.202,111.093 423.042,111.093"/>
<path class="Fingering" d="M390.517,110.213 C390.639,110.213 390.822,110.288 391.065,110.437 C391.307,110.586 391.519,110.661 391.701,110.661 C391.994,110.661 392.242,110.546 392.445,110.317 C392.647,110.088 392.749,109.805 392.749,109.469 C392.749,109.261 392.713,109.077 392.641,108.917 C392.569,108.757 392.477,108.633 392.365,108.545 C392.253,108.457 392.119,108.385 391.965,108.329 C391.81,108.273 391.665,108.237 391.529,108.221 C391.393,108.205 391.247,108.197 391.093,108.197 L391.093,108.093 C391.274,108.029 391.43,107.966 391.561,107.905 C391.691,107.844 391.829,107.761 391.973,107.657 C392.117,107.553 392.227,107.426 392.305,107.277 C392.382,107.128 392.421,106.957 392.421,106.765 C392.421,106.514 392.339,106.309 392.177,106.149 C392.014,105.989 391.802,105.909 391.541,105.909 C391.29,105.909 391.07,105.977 390.881,106.113 C390.691,106.249 390.514,106.464 390.349,106.757 L390.229,106.725 C390.367,106.346 390.555,106.036 390.793,105.793 C391.03,105.55 391.367,105.429 391.805,105.429 C392.173,105.429 392.473,105.53 392.705,105.733 C392.937,105.936 393.053,106.2 393.053,106.525 C393.053,106.744 392.997,106.936 392.885,107.101 C392.773,107.266 392.578,107.442 392.301,107.629 C392.621,107.768 392.871,107.945 393.053,108.161 C393.234,108.377 393.325,108.685 393.325,109.085 C393.325,109.65 393.115,110.102 392.697,110.441 C392.278,110.78 391.751,110.949 391.117,110.949 C390.839,110.949 390.619,110.908 390.457,110.825 C390.294,110.742 390.213,110.632 390.213,110.493 C390.213,110.408 390.241,110.34 390.297,110.289 C390.353,110.238 390.426,110.213 390.517,110.213"/>
<path class="Fingering" d="M375.478,103.593 C375.382,103.593 375.19,103.652 374.902,103.769 L374.902,103.657 L376.342,102.929 L376.406,102.945 L376.406,107.745 C376.406,107.937 376.454,108.062 376.55,108.121 C376.646,108.18 376.851,108.212 377.166,108.217 L377.166,108.337 L374.958,108.337 L374.958,108.217 C375.256,108.206 375.458,108.162 375.562,108.085 C375.666,108.008 375.718,107.844 375.718,107.593 L375.718,103.969 C375.718,103.718 375.638,103.593 375.478,103.593"/>
<path class="Fingering" d="M303.65,96.7851 C303.65,96.5024 303.587,96.2518 303.462,96.0331 C303.337,95.8144 303.185,95.6451 303.006,95.5251 C302.827,95.4051 302.627,95.3064 302.406,95.2291 C302.185,95.1518 301.993,95.1011 301.83,95.0771 C301.667,95.0531 301.525,95.0411 301.402,95.0411 C301.338,95.0411 301.306,95.0198 301.306,94.9771 C301.306,94.9611 301.309,94.9478 301.314,94.9371 L302.186,93.0411 L303.858,93.0411 C303.943,93.0411 304.011,93.0278 304.062,93.0011 C304.113,92.9744 304.167,92.9184 304.226,92.8331 L304.298,92.8891 L303.994,93.6011 C303.973,93.6491 303.911,93.6731 303.81,93.6731 L302.242,93.6731 L301.906,94.3531 C302.685,94.4918 303.263,94.7171 303.642,95.0291 C304.021,95.3411 304.21,95.7984 304.21,96.4011 C304.21,96.7158 304.161,96.9958 304.062,97.2411 C303.963,97.4864 303.838,97.6838 303.686,97.8331 C303.534,97.9824 303.358,98.1051 303.158,98.2011 C302.958,98.2971 302.766,98.3624 302.582,98.3971 C302.398,98.4318 302.213,98.4491 302.026,98.4491 C301.727,98.4491 301.49,98.4051 301.314,98.3171 C301.138,98.2291 301.05,98.1078 301.05,97.9531 C301.05,97.7558 301.165,97.6571 301.394,97.6571 C301.543,97.6571 301.737,97.7398 301.974,97.9051 C302.211,98.0704 302.399,98.1531 302.538,98.1531 C302.853,98.1531 303.117,98.0211 303.33,97.7571 C303.543,97.4931 303.65,97.1691 303.65,96.7851"/>
<path class="Fingering" d="M232.838,103.593 C232.742,103.593 232.55,103.652 232.262,103.769 L232.262,103.657 L233.702,102.929 L233.766,102.945 L233.766,107.745 C233.766,107.937 233.814,108.062 233.91,108.121 C234.006,108.18 234.212,108.212 234.526,108.217 L234.526,108.337 L232.318,108.337 L232.318,108.217 C232.617,108.206 232.818,108.162 232.922,108.085 C233.026,108.008 233.078,107.844 233.078,107.593 L233.078,103.969 C233.078,103.718 232.998,103.593 232.838,103.593"/>
<path class="Fingering" d="M214.668,110.213 C214.79,110.213 214.973,110.288 215.216,110.437 C215.458,110.586 215.67,110.661 215.852,110.661 C216.145,110.661 216.393,110.546 216.596,110.317 C216.798,110.088 216.9,109.805 216.9,109.469 C216.9,109.261 216.864,109.077 216.792,108.917 C216.72,108.757 216.628,108.633 216.516,108.545 C216.404,108.457 216.27,108.385 216.116,108.329 C215.961,108.273 215.816,108.237 215.68,108.221 C215.544,108.205 215.398,108.197 215.244,108.197 L215.244,108.093 C215.425,108.029 215.581,107.966 215.712,107.905 C215.842,107.844 215.98,107.761 216.124,107.657 C216.268,107.553 216.378,107.426 216.456,107.277 C216.533,107.128 216.572,106.957 216.572,106.765 C216.572,106.514 216.49,106.309 216.328,106.149 C216.165,105.989 215.953,105.909 215.692,105.909 C215.441,105.909 215.221,105.977 215.032,106.113 C214.842,106.249 214.665,106.464 214.5,106.757 L214.38,106.725 C214.518,106.346 214.706,106.036 214.944,105.793 C215.181,105.55 215.518,105.429 215.956,105.429 C216.324,105.429 216.624,105.53 216.856,105.733 C217.088,105.936 217.204,106.2 217.204,106.525 C217.204,106.744 217.148,106.936 217.036,107.101 C216.924,107.266 216.729,107.442 216.452,107.629 C216.772,107.768 217.022,107.945 217.204,108.161 C217.385,108.377 217.476,108.685 217.476,109.085 C217.476,109.65 217.266,110.102 216.848,110.441 C216.429,110.78 215.902,110.949 215.268,110.949 C214.99,110.949 214.77,110.908 214.608,110.825 C214.445,110.742 214.364,110.632 214.364,110.493 C214.364,110.408 214.392,110.34 214.448,110.289 C214.504,110.238 214.577,110.213 214.668,110.213"/>
<path class="Fingering" d="M176.23,129.888 C176.134,129.888 175.942,129.946 175.654,130.064 L175.654,129.952 L177.094,129.224 L177.158,129.24 L177.158,134.04 C177.158,134.232 177.206,134.357 177.302,134.416 C177.398,134.474 177.603,134.506 177.918,134.512 L177.918,134.632 L175.71,134.632 L175.71,134.512 C176.009,134.501 176.21,134.457 176.314,134.38 C176.418,134.302 176.47,134.138 176.47,133.888 L176.47,130.264 C176.47,130.013 176.39,129.888 176.23,129.888"/>
<path class="Fingering" d="M163.078,134.316 L163.078,134.828 L162.262,134.828 L162.262,136.164 L161.646,136.164 L161.646,134.828 L159.398,134.828 L159.398,134.316 L161.91,130.756 L162.262,130.756 L162.262,134.316 L163.078,134.316 M161.638,134.316 L161.638,131.572 L159.718,134.316 L161.638,134.316 "/>
<path class="Fingering" d="M116.679,139.35 C116.583,139.35 116.391,139.409 116.103,139.526 L116.103,139.414 L117.543,138.686 L117.607,138.702 L117.607,143.502 C117.607,143.694 117.655,143.82 117.751,143.878 C117.847,143.937 118.052,143.969 118.367,143.974 L118.367,144.094 L116.159,144.094 L116.159,143.974 C116.458,143.964 116.659,143.92 116.763,143.842 C116.867,143.765 116.919,143.601 116.919,143.35 L116.919,139.726 C116.919,139.476 116.839,139.35 116.679,139.35"/>
<path class="Fingering" d="M99.8988,146.188 C100.022,146.188 100.204,146.263 100.447,146.412 C100.69,146.561 100.902,146.636 101.083,146.636 C101.376,146.636 101.624,146.521 101.827,146.292 C102.03,146.063 102.131,145.78 102.131,145.444 C102.131,145.236 102.095,145.052 102.023,144.892 C101.951,144.732 101.859,144.608 101.747,144.52 C101.635,144.432 101.502,144.36 101.347,144.304 C101.192,144.248 101.047,144.212 100.911,144.196 C100.775,144.18 100.63,144.172 100.475,144.172 L100.475,144.068 C100.656,144.004 100.812,143.941 100.943,143.88 C101.074,143.819 101.211,143.736 101.355,143.632 C101.499,143.528 101.61,143.401 101.687,143.252 C101.764,143.103 101.803,142.932 101.803,142.74 C101.803,142.489 101.722,142.284 101.559,142.124 C101.396,141.964 101.184,141.884 100.923,141.884 C100.672,141.884 100.452,141.952 100.263,142.088 C100.074,142.224 99.8962,142.439 99.7308,142.732 L99.6108,142.7 C99.7495,142.321 99.9375,142.011 100.175,141.768 C100.412,141.525 100.75,141.404 101.187,141.404 C101.555,141.404 101.855,141.505 102.087,141.708 C102.319,141.911 102.435,142.175 102.435,142.5 C102.435,142.719 102.379,142.911 102.267,143.076 C102.155,143.241 101.96,143.417 101.683,143.604 C102.003,143.743 102.254,143.92 102.435,144.136 C102.616,144.352 102.707,144.66 102.707,145.06 C102.707,145.625 102.498,146.077 102.079,146.416 C101.66,146.755 101.134,146.924 100.499,146.924 C100.222,146.924 100.002,146.883 99.8388,146.8 C99.6762,146.717 99.5948,146.607 99.5948,146.468 C99.5948,146.383 99.6228,146.315 99.6788,146.264 C99.7348,146.213 99.8082,146.188 99.8988,146.188"/>
<path class="Fingering" d="M67.5176,147.503 C67.4216,147.503 67.2296,147.562 66.9416,147.679 L66.9416,147.567 L68.3816,146.839 L68.4456,146.855 L68.4456,151.655 C68.4456,151.847 68.4936,151.973 68.5896,152.031 C68.6856,152.09 68.8909,152.122 69.2056,152.127 L69.2056,152.247 L66.9976,152.247 L66.9976,152.127 C67.2962,152.117 67.4976,152.073 67.6016,151.995 C67.7056,151.918 67.7576,151.754 67.7576,151.503 L67.7576,147.879 C67.7576,147.629 67.6776,147.503 67.5176,147.503"/>
</svg>
