<?xml version="1.0" encoding="UTF-8" standalone="no"?>
<svg width="612px" height="792px" viewBox="0 0 612 792"
 xmlns="http://www.w3.org/2000/svg" xmlns:xlink="http://www.w3.org/1999/xlink" version="1.2" baseProfile="tiny">
<title>C大调音阶（左手）</title>
<desc>Generated by MuseScore 2.3.2</desc>
<polyline class="StaffLines" fill="none" stroke="#000000" stroke-width="0.40" stroke-linejoin="bevel" points="28.3465,113.347 583.654,113.347"/>
<polyline class="StaffLines" fill="none" stroke="#000000" stroke-width="0.40" stroke-linejoin="bevel" points="28.3465,118.347 583.654,118.347"/>
<polyline class="StaffLines" fill="none" stroke="#000000" stroke-width="0.40" stroke-linejoin="bevel" points="28.3465,123.347 583.654,123.347"/>
<polyline class="StaffLines" fill="none" stroke="#000000" stroke-width="0.40" stroke-linejoin="bevel" points="28.3465,128.347 583.654,128.347"/>
<polyline class="StaffLines" fill="none" stroke="#000000" stroke-width="0.40" stroke-linejoin="bevel" points="28.3465,133.347 583.654,133.347"/>
<path class="Text" d="M202.796,45.5465 C202.796,43.0505 203.564,41.0225 205.1,39.4625 C206.636,37.9025 208.548,37.1225 210.836,37.1225 C211.86,37.1225 212.82,37.2545 213.716,37.5185 C214.612,37.7825 215.132,37.9145 215.276,37.9145 C215.804,37.9145 216.14,37.6505 216.284,37.1225 L216.788,37.1225 L217.004,42.5465 L216.452,42.5465 C215.572,39.5705 213.852,38.0825 211.292,38.0825 C209.548,38.0825 208.16,38.7305 207.128,40.0265 C206.096,41.3225 205.58,43.0585 205.58,45.2345 C205.58,46.6265 205.76,47.8305 206.12,48.8465 C206.48,49.8625 206.964,50.6305 207.572,51.1505 C208.18,51.6705 208.808,52.0465 209.456,52.2785 C210.104,52.5105 210.796,52.6265 211.532,52.6265 C213.42,52.6265 215.204,51.8185 216.884,50.2025 L217.316,50.6345 C216.58,51.6105 215.644,52.3625 214.508,52.8905 C213.372,53.4185 212.124,53.6825 210.764,53.6825 C208.396,53.6825 206.476,52.9385 205.004,51.4505 C203.532,49.9625 202.796,47.9945 202.796,45.5465"/>
<path class="Text" d="M230.154,43.2425 C229.834,45.7865 229.302,47.8865 228.558,49.5425 C227.814,51.1985 226.63,52.6785 225.006,53.9825 C223.382,55.2865 221.514,56.2585 219.402,56.8985 L219.258,56.4665 C222.106,55.0745 224.306,53.2545 225.858,51.0065 C227.41,48.7585 228.282,46.1705 228.474,43.2425 L222.282,43.2425 C221.61,43.2425 221.066,43.3305 220.65,43.5065 L219.762,42.4505 C220.37,42.5305 221.042,42.5705 221.778,42.5705 L228.522,42.5705 C228.618,41.1945 228.666,39.8225 228.666,38.4545 C228.666,37.0864 228.65,35.7945 228.618,34.5785 L231.21,35.6585 C231.482,35.7705 231.618,35.8705 231.618,35.9584 C231.618,36.0465 231.51,36.1505 231.294,36.2705 C231.078,36.3905 230.93,36.5545 230.85,36.7625 C230.77,36.9704 230.682,37.7145 230.586,38.9945 C230.49,40.2745 230.378,41.4665 230.25,42.5705 L237.09,42.5705 L238.674,40.6505 L240.498,42.8345 C240.61,42.9465 240.666,43.0425 240.666,43.1225 C240.666,43.2025 240.554,43.2425 240.33,43.2425 L231.354,43.2425 C232.49,49.4025 235.642,53.0665 240.81,54.2345 L240.786,54.6425 C240.338,54.6745 239.906,54.8185 239.49,55.0745 C239.074,55.3305 238.786,55.5985 238.626,55.8785 C238.466,56.1585 238.322,56.2985 238.194,56.2985 C237.97,56.2985 237.138,55.6945 235.698,54.4865 C234.258,53.2785 233.154,51.8465 232.386,50.1905 C231.618,48.5345 231.09,46.2185 230.802,43.2425 L230.154,43.2425 M245.13,35.3225 C246.474,35.8985 247.35,36.3544 247.758,36.6905 C248.166,37.0265 248.37,37.4184 248.37,37.8665 C248.37,38.3145 248.222,38.7185 247.926,39.0785 C247.63,39.4385 247.31,39.6185 246.966,39.6185 C246.622,39.6185 246.426,39.3545 246.378,38.8265 C246.266,37.5945 245.794,36.5225 244.962,35.6105 L245.13,35.3225 M253.002,36.8825 L261.978,36.8825 L262.746,35.8025 L264.45,37.0744 C264.61,37.2024 264.69,37.3184 264.69,37.4225 C264.69,37.5265 264.594,37.6265 264.402,37.7225 L263.778,38.0585 L263.778,54.2585 C263.778,54.8345 263.702,55.2785 263.55,55.5905 C263.398,55.9025 263.042,56.2385 262.482,56.5985 C261.922,56.9585 261.582,57.1385 261.462,57.1385 C261.342,57.1385 261.25,57.0025 261.186,56.7305 C261.106,56.2345 260.886,55.8545 260.526,55.5905 C260.166,55.3265 259.378,55.0265 258.162,54.6905 L258.234,54.3305 C259.466,54.5225 260.322,54.6185 260.802,54.6185 C261.282,54.6185 261.618,54.5585 261.81,54.4385 C262.002,54.3185 262.098,54.0665 262.098,53.6825 L262.098,37.5545 L252.762,37.5545 L252.762,44.9465 C252.762,47.5065 252.618,49.4945 252.33,50.9105 C252.042,52.3265 251.494,53.5065 250.686,54.4505 C249.878,55.3945 248.634,56.3865 246.954,57.4265 L246.69,57.0905 C248.066,56.0025 249.054,55.0345 249.654,54.1865 C250.254,53.3385 250.65,52.2665 250.842,50.9705 C251.034,49.6745 251.13,47.7065 251.13,45.0665 L251.13,38.1545 C251.13,37.3225 251.106,36.4745 251.058,35.6105 L253.002,36.8825 M257.97,41.8745 L257.97,44.5145 L259.506,44.5145 L260.61,43.1705 L261.834,44.6825 C261.962,44.8105 262.026,44.9225 262.026,45.0185 C262.026,45.1145 261.914,45.1625 261.69,45.1625 L255.306,45.1625 C254.65,45.1625 254.106,45.2505 253.674,45.4265 L252.834,44.3945 C253.426,44.4745 254.09,44.5145 254.826,44.5145 L256.338,44.5145 L256.338,41.8745 L255.642,41.8745 C254.97,41.8745 254.426,41.9625 254.01,42.1385 L253.17,41.1065 C253.762,41.1865 254.426,41.2265 255.162,41.2264 L256.338,41.2264 L256.338,40.5305 C256.338,39.6345 256.314,38.7625 256.266,37.9145 L258.138,38.3465 C258.378,38.3945 258.498,38.4545 258.498,38.5265 C258.498,38.5985 258.418,38.6985 258.258,38.8265 L257.97,39.0185 L257.97,41.2264 L259.098,41.2264 L260.106,39.9545 L261.282,41.3945 C261.394,41.5225 261.45,41.6345 261.45,41.7305 C261.45,41.8265 261.338,41.8745 261.114,41.8745 L257.97,41.8745 M250.674,49.5305 C249.57,50.6345 248.654,51.6265 247.926,52.5065 C247.198,53.3865 246.754,53.9905 246.594,54.3185 C246.434,54.6465 246.31,54.8105 246.222,54.8105 C246.134,54.8105 246.026,54.7065 245.898,54.4985 L244.986,52.8425 C245.338,52.7145 245.59,52.5545 245.742,52.3625 C245.894,52.1705 245.97,51.7945 245.97,51.2345 L245.97,43.2665 L244.914,43.2665 C244.21,43.2665 243.666,43.3705 243.282,43.5785 L242.418,42.5225 C243.17,42.5705 243.842,42.5945 244.434,42.5945 L246.09,42.5945 L246.738,41.4185 L248.154,42.5465 C248.378,42.7225 248.49,42.8585 248.49,42.9545 C248.49,43.0505 248.386,43.1385 248.178,43.2185 L247.65,43.4585 L247.65,51.1865 L250.458,49.1705 L250.674,49.5305 M255.594,47.2745 L258.618,47.2745 L259.218,46.3625 L260.634,47.4425 C260.778,47.5705 260.85,47.6785 260.85,47.7665 C260.85,47.8545 260.778,47.9385 260.634,48.0185 L260.226,48.2585 L260.226,49.1945 C260.226,49.7225 260.25,50.2105 260.298,50.6585 L260.37,51.8105 C260.37,52.0665 260.15,52.3265 259.71,52.5905 C259.27,52.8545 258.978,52.9865 258.834,52.9865 C258.69,52.9865 258.618,52.8745 258.618,52.6505 L258.618,51.7385 L255.858,51.7385 L255.858,52.5545 C255.858,52.7625 255.814,52.9225 255.726,53.0345 C255.638,53.1465 255.426,53.2865 255.09,53.4545 C254.754,53.6225 254.518,53.7065 254.382,53.7065 C254.246,53.7065 254.178,53.6025 254.178,53.3945 C254.178,53.1865 254.19,52.7985 254.214,52.2305 C254.238,51.6625 254.25,50.8105 254.25,49.6745 L254.25,48.6425 C254.25,47.9865 254.226,47.2425 254.178,46.4105 L255.594,47.2745 M258.618,51.0425 L258.618,47.9465 L255.858,47.9465 L255.858,51.0425 L258.618,51.0425 M275.97,34.8185 C276.882,35.0265 277.606,35.2745 278.142,35.5625 C278.678,35.8505 278.946,36.2425 278.946,36.7385 C278.946,37.6185 278.586,38.0585 277.866,38.0585 C277.434,38.0585 277.162,37.7865 277.05,37.2425 C276.874,36.3785 276.458,35.6745 275.802,35.1305 L275.97,34.8185 M270.306,38.4905 L284.106,38.4905 L285.618,36.6905 L287.322,38.7305 C287.434,38.8585 287.49,38.9585 287.49,39.0305 C287.49,39.1025 287.378,39.1385 287.154,39.1385 L270.81,39.1385 C270.154,39.1385 269.618,39.2185 269.202,39.3785 L268.362,38.3465 C268.938,38.4425 269.586,38.4905 270.306,38.4905 M279.33,44.1305 C280.498,42.3065 281.314,40.6825 281.778,39.2585 L283.698,40.3625 C283.89,40.4745 283.986,40.5825 283.986,40.6865 C283.986,40.7905 283.858,40.8585 283.602,40.8905 C283.186,40.9545 282.018,42.0345 280.098,44.1305 L285.474,44.1305 L287.106,42.2105 L288.93,44.3945 C289.042,44.5385 289.098,44.6425 289.098,44.7065 C289.098,44.7705 288.986,44.8025 288.762,44.8025 L269.418,44.8025 C268.794,44.8025 268.258,44.8905 267.81,45.0665 L266.946,44.0105 C267.538,44.0905 268.186,44.1305 268.89,44.1305 L279.33,44.1305 M272.826,39.5705 C274.842,40.6905 275.85,41.6025 275.85,42.3065 C275.85,42.7385 275.726,43.1065 275.478,43.4105 C275.23,43.7145 274.942,43.8665 274.614,43.8665 C274.286,43.8665 274.098,43.6665 274.05,43.2665 C273.89,42.0185 273.394,40.8985 272.562,39.9065 L272.826,39.5705 M273.762,47.0105 L281.994,47.0105 L282.882,45.9305 L284.562,47.2025 C284.674,47.2825 284.73,47.3745 284.73,47.4785 C284.73,47.5825 284.674,47.6745 284.562,47.7545 L283.986,48.1865 L283.986,53.2505 C283.986,53.8585 284.002,54.3945 284.034,54.8585 L284.106,55.9145 C284.106,56.2025 283.842,56.4585 283.314,56.6825 C282.786,56.9065 282.47,57.0185 282.366,57.0185 C282.262,57.0185 282.21,56.8985 282.21,56.6585 L282.21,55.3865 L273.642,55.3865 L273.642,56.0585 C273.642,56.2505 273.598,56.4025 273.51,56.5145 C273.422,56.6265 273.206,56.7625 272.862,56.9225 C272.518,57.0825 272.262,57.1625 272.094,57.1625 C271.926,57.1625 271.842,56.9945 271.842,56.6585 C271.842,56.5625 271.858,56.2625 271.89,55.7585 C271.922,55.2545 271.938,54.4105 271.938,53.2265 L271.938,47.9945 C271.938,47.3385 271.906,46.6105 271.842,45.8105 L273.762,47.0105 M282.21,50.8025 L282.21,47.6585 L273.642,47.6585 L273.642,50.8025 L282.21,50.8025 M282.21,54.7385 L282.21,51.4745 L273.642,51.4745 L273.642,54.7385 L282.21,54.7385 M304.986,37.7225 C303.85,39.8185 302.854,41.3985 301.998,42.4625 C301.142,43.5265 300.018,44.5705 298.626,45.5945 L298.362,45.2825 C299.562,44.0985 300.678,42.5785 301.71,40.7225 C302.742,38.8665 303.498,36.9785 303.978,35.0585 L305.826,35.8505 C306.13,36.0105 306.282,36.1305 306.282,36.2105 C306.282,36.2905 306.162,36.3705 305.922,36.4505 C305.746,36.5465 305.554,36.7545 305.346,37.0744 C306.242,38.7865 307.29,40.1065 308.49,41.0345 C309.69,41.9625 311.17,42.5785 312.93,42.8825 L312.954,43.1945 C311.898,43.5625 311.306,43.9385 311.178,44.3225 C311.13,44.4825 311.058,44.5625 310.962,44.5625 C310.754,44.5625 310.182,44.2465 309.246,43.6145 C308.31,42.9825 307.474,42.1825 306.738,41.2145 C306.002,40.2465 305.418,39.0825 304.986,37.7225 M294.258,37.3625 L296.802,37.3625 L297.714,35.9464 L299.442,37.3385 C299.602,37.4665 299.682,37.5825 299.682,37.6865 C299.682,37.7905 299.594,37.8665 299.418,37.9145 C298.89,38.0425 298.362,38.5865 297.834,39.5465 L295.722,43.4105 C296.778,44.2905 297.59,45.1425 298.158,45.9665 C298.726,46.7905 299.01,47.4505 299.01,47.9465 C299.01,49.3705 298.63,50.3665 297.87,50.9345 C297.11,51.5025 296.618,51.7865 296.394,51.7865 C296.25,51.7865 296.178,51.6585 296.178,51.4025 C296.178,50.9705 296.018,50.6385 295.698,50.4065 C295.378,50.1745 294.922,49.9705 294.33,49.7945 L294.378,49.4105 C294.97,49.4745 295.502,49.5065 295.974,49.5065 C296.446,49.5065 296.798,49.4225 297.03,49.2545 C297.262,49.0865 297.378,48.7865 297.378,48.3545 C297.378,47.0585 296.594,45.4345 295.026,43.4825 L296.874,38.0585 L293.874,38.0585 L293.874,51.4265 C293.874,53.0585 293.886,54.1825 293.91,54.7985 C293.934,55.4145 293.946,55.7545 293.946,55.8185 C293.946,56.1545 293.714,56.4505 293.25,56.7065 C292.786,56.9625 292.474,57.0905 292.314,57.0905 C292.154,57.0905 292.074,56.9065 292.074,56.5385 L292.218,53.9945 C292.266,52.8905 292.29,51.8665 292.29,50.9225 L292.29,39.8585 C292.29,38.5785 292.258,37.2985 292.194,36.0185 L294.258,37.3625 M308.898,45.1145 L308.49,45.3065 L308.49,51.5225 C308.49,53.1225 308.502,54.2385 308.526,54.8705 C308.55,55.5025 308.562,55.8505 308.562,55.9145 C308.562,56.2345 308.342,56.4905 307.902,56.6825 C307.462,56.8745 307.142,56.9705 306.942,56.9705 C306.742,56.9705 306.642,56.7865 306.642,56.4185 L306.762,54.0425 C306.81,52.9705 306.834,51.9545 306.834,50.9945 L306.834,46.8665 C306.834,46.0025 306.802,44.9385 306.738,43.6745 L308.778,44.5865 C309.002,44.6985 309.114,44.7985 309.114,44.8865 C309.114,44.9745 309.042,45.0505 308.898,45.1145 M301.602,43.8425 L303.45,44.4905 C303.722,44.5865 303.858,44.6905 303.858,44.8025 C303.858,44.9145 303.754,45.0745 303.546,45.2825 C303.338,45.4905 303.234,46.1305 303.234,47.2025 C303.218,49.8105 302.934,51.6545 302.382,52.7345 C301.83,53.8145 301.014,54.6705 299.934,55.3025 C298.854,55.9345 297.53,56.5305 295.962,57.0905 L295.818,56.6825 C297.514,55.8505 298.77,55.0585 299.586,54.3065 C300.402,53.5545 300.954,52.6665 301.242,51.6425 C301.53,50.6185 301.674,48.9385 301.674,46.6025 C301.674,45.7225 301.65,44.8025 301.602,43.8425 M335.298,35.4185 L335.61,36.0425 C334.026,37.4985 332.898,39.0585 332.226,40.7225 C331.554,42.3865 331.218,44.1625 331.218,46.0505 C331.218,46.9945 331.31,47.9305 331.494,48.8585 C331.678,49.7865 331.95,50.6785 332.31,51.5345 C332.67,52.3905 333.118,53.2065 333.654,53.9825 C334.19,54.7585 334.818,55.4585 335.538,56.0825 L335.25,56.6345 C334.45,56.0425 333.722,55.3465 333.066,54.5465 C332.41,53.7465 331.85,52.8825 331.386,51.9545 C330.922,51.0265 330.562,50.0545 330.306,49.0385 C330.05,48.0225 329.922,46.9945 329.922,45.9545 C329.922,44.9305 330.046,43.9065 330.294,42.8825 C330.542,41.8585 330.898,40.8825 331.362,39.9545 C331.826,39.0265 332.39,38.1745 333.054,37.3985 C333.718,36.6225 334.466,35.9625 335.298,35.4185 M348.954,40.4585 C348.298,42.5225 347.546,44.4425 346.698,46.2185 C347.242,46.2825 347.826,46.3145 348.45,46.3145 L356.418,46.3145 L357.762,44.7785 L359.274,46.5545 C359.37,46.6825 359.418,46.7985 359.418,46.9025 C359.418,47.0065 359.322,47.0585 359.13,47.0585 L352.818,47.0585 L352.818,54.7385 L358.29,54.7385 L359.682,53.1545 L361.194,54.9545 C361.306,55.0985 361.362,55.2145 361.362,55.3025 C361.362,55.3905 361.25,55.4345 361.026,55.4345 L343.77,55.4345 C343.098,55.4345 342.554,55.5225 342.138,55.6985 L341.274,54.6185 C341.882,54.6985 342.554,54.7385 343.29,54.7385 L350.898,54.7385 L350.898,47.0585 L348.93,47.0585 C348.258,47.0585 347.714,47.1385 347.298,47.2985 L346.602,46.4345 C344.858,50.0025 342.434,52.9385 339.33,55.2425 L339.09,54.9785 C342.69,51.2665 345.33,46.4265 347.01,40.4585 L342.69,40.4585 C342.018,40.4585 341.474,40.5465 341.058,40.7225 L340.17,39.6425 C340.778,39.7225 341.442,39.7625 342.162,39.7625 L347.202,39.7625 C347.618,38.2425 348.002,36.5705 348.354,34.7465 L350.586,35.6585 C350.794,35.7545 350.898,35.8544 350.898,35.9584 C350.898,36.0624 350.774,36.1904 350.526,36.3424 C350.278,36.4945 350.034,36.9704 349.794,37.7705 L349.194,39.7625 L357.234,39.7625 L358.674,38.0345 L360.378,40.0505 C360.49,40.1785 360.546,40.2785 360.546,40.3505 C360.546,40.4225 360.434,40.4585 360.21,40.4585 L348.954,40.4585 M373.482,43.0025 L368.082,43.0025 C367.426,43.0025 366.898,43.0905 366.498,43.2665 L365.658,42.2105 C366.234,42.3065 366.882,42.3545 367.602,42.3544 L373.482,42.3544 L373.482,38.1785 C370.442,38.3865 367.594,38.4665 364.938,38.4185 L364.914,38.0825 C373.234,37.2185 378.522,36.3225 380.778,35.3945 L382.074,37.0025 C382.25,37.2264 382.338,37.3745 382.338,37.4465 C382.338,37.5185 382.29,37.5545 382.194,37.5545 C382.098,37.5545 381.966,37.5385 381.798,37.5065 C381.63,37.4745 381.454,37.4585 381.27,37.4585 C381.086,37.4585 380.422,37.5185 379.278,37.6385 C378.134,37.7585 376.786,37.8825 375.234,38.0105 L375.234,42.3544 L379.194,42.3544 L380.61,40.6265 L382.266,42.6185 C382.362,42.7145 382.41,42.8025 382.41,42.8825 C382.41,42.9625 382.298,43.0025 382.074,43.0025 L375.234,43.0025 L375.234,47.1545 L381.714,47.1545 L383.274,45.2825 L385.098,47.3945 C385.194,47.5225 385.242,47.6305 385.242,47.7185 C385.242,47.8065 385.13,47.8505 384.906,47.8505 L375.234,47.8505 L375.234,54.0425 C375.234,54.5225 375.162,54.8865 375.018,55.1345 C374.874,55.3825 374.478,55.7145 373.83,56.1305 C373.182,56.5465 372.814,56.7545 372.726,56.7545 C372.638,56.7545 372.562,56.6505 372.498,56.4425 C372.322,55.8185 371.974,55.3745 371.454,55.1105 C370.934,54.8465 370.162,54.6425 369.138,54.4985 L369.162,54.1385 C370.234,54.2345 371.11,54.2825 371.79,54.2825 C372.47,54.2825 372.922,54.2185 373.146,54.0905 C373.37,53.9625 373.482,53.7625 373.482,53.4905 L373.482,47.8505 L365.754,47.8505 C365.05,47.8505 364.522,47.9225 364.17,48.0665 L363.306,47.0105 C363.898,47.1065 364.538,47.1545 365.226,47.1545 L373.482,47.1545 L373.482,43.0025 M389.586,35.3465 C390.418,35.8905 391.166,36.5545 391.83,37.3385 C392.494,38.1225 393.058,38.9745 393.522,39.8945 C393.986,40.8145 394.342,41.7865 394.59,42.8105 C394.838,43.8345 394.962,44.8585 394.962,45.8825 C394.962,46.9225 394.834,47.9505 394.578,48.9665 C394.322,49.9825 393.962,50.9585 393.498,51.8945 C393.034,52.8305 392.474,53.6985 391.818,54.4985 C391.162,55.2985 390.434,55.9865 389.634,56.5625 L389.346,56.0105 C390.066,55.3865 390.694,54.6905 391.23,53.9225 C391.766,53.1545 392.218,52.3385 392.586,51.4745 C392.954,50.6105 393.23,49.7145 393.414,48.7865 C393.598,47.8585 393.69,46.9225 393.69,45.9785 C393.69,44.0905 393.35,42.3145 392.67,40.6505 C391.99,38.9865 390.858,37.4265 389.274,35.9704 L389.586,35.3465 "/>
<polyline class="BarLine" fill="none" stroke="#000000" stroke-width="0.80" stroke-linejoin="bevel" points="578.754,113.347 578.754,133.347"/>
<polyline class="BarLine" fill="none" stroke="#000000" stroke-width="2.50" stroke-linejoin="bevel" points="582.404,113.347 582.404,133.347"/>
<polyline class="BarLine" fill="none" stroke="#000000" stroke-width="0.80" stroke-linejoin="bevel" points="477.644,113.347 477.644,133.347"/>
<polyline class="BarLine" fill="none" stroke="#000000" stroke-width="0.80" stroke-linejoin="bevel" points="331.188,113.347 331.188,133.347"/>
<polyline class="BarLine" fill="none" stroke="#000000" stroke-width="0.80" stroke-linejoin="bevel" points="179.87,113.347 179.87,133.347"/>
<polyline class="LedgerLine" fill="none" stroke="#000000" stroke-width="0.80" stroke-linecap="square" stroke-linejoin="bevel" points="426.516,108.347 436.099,108.347"/>
<polyline class="LedgerLine" fill="none" stroke="#000000" stroke-width="0.80" stroke-linecap="square" stroke-linejoin="bevel" points="410.107,108.347 419.69,108.347"/>
<polyline class="LedgerLine" fill="none" stroke="#000000" stroke-width="0.80" stroke-linecap="square" stroke-linejoin="bevel" points="237.427,98.3465 247.009,98.3465"/>
<polyline class="LedgerLine" fill="none" stroke="#000000" stroke-width="0.80" stroke-linecap="square" stroke-linejoin="bevel" points="237.427,103.346 247.009,103.346"/>
<polyline class="LedgerLine" fill="none" stroke="#000000" stroke-width="0.80" stroke-linecap="square" stroke-linejoin="bevel" points="237.427,108.347 247.009,108.347"/>
<polyline class="LedgerLine" fill="none" stroke="#000000" stroke-width="0.80" stroke-linecap="square" stroke-linejoin="bevel" points="219.874,103.346 229.457,103.346"/>
<polyline class="LedgerLine" fill="none" stroke="#000000" stroke-width="0.80" stroke-linecap="square" stroke-linejoin="bevel" points="219.874,108.347 229.457,108.347"/>
<polyline class="LedgerLine" fill="none" stroke="#000000" stroke-width="0.80" stroke-linecap="square" stroke-linejoin="bevel" points="202.322,103.346 211.905,103.346"/>
<polyline class="LedgerLine" fill="none" stroke="#000000" stroke-width="0.80" stroke-linecap="square" stroke-linejoin="bevel" points="202.322,108.347 211.905,108.347"/>
<polyline class="LedgerLine" fill="none" stroke="#000000" stroke-width="0.80" stroke-linecap="square" stroke-linejoin="bevel" points="184.77,108.347 194.353,108.347"/>
<polyline class="LedgerLine" fill="none" stroke="#000000" stroke-width="0.80" stroke-linecap="square" stroke-linejoin="bevel" points="163.814,108.347 173.397,108.347"/>
<polyline class="Stem" fill="none" stroke="#000000" stroke-width="0.65" stroke-linecap="round" stroke-linejoin="bevel" points="551.327,125.079 551.327,109.597"/>
<polyline class="Stem" fill="none" stroke="#000000" stroke-width="0.65" stroke-linecap="round" stroke-linejoin="bevel" points="530.003,124.286 530.003,138.347"/>
<polyline class="Stem" fill="none" stroke="#000000" stroke-width="0.65" stroke-linecap="round" stroke-linejoin="bevel" points="514.791,121.786 514.791,136.263"/>
<polyline class="Stem" fill="none" stroke="#000000" stroke-width="0.65" stroke-linecap="round" stroke-linejoin="bevel" points="499.58,119.286 499.58,134.18"/>
<polyline class="Stem" fill="none" stroke="#000000" stroke-width="0.65" stroke-linecap="round" stroke-linejoin="bevel" points="484.369,116.786 484.369,132.097"/>
<polyline class="Stem" fill="none" stroke="#000000" stroke-width="0.65" stroke-linecap="round" stroke-linejoin="bevel" points="461.16,114.286 461.16,128.347"/>
<polyline class="Stem" fill="none" stroke="#000000" stroke-width="0.65" stroke-linecap="round" stroke-linejoin="bevel" points="444.75,111.786 444.75,126.263"/>
<polyline class="Stem" fill="none" stroke="#000000" stroke-width="0.65" stroke-linecap="round" stroke-linejoin="bevel" points="428.341,109.286 428.341,124.18"/>
<polyline class="Stem" fill="none" stroke="#000000" stroke-width="0.65" stroke-linecap="round" stroke-linejoin="bevel" points="411.932,106.786 411.932,122.097"/>
<polyline class="Stem" fill="none" stroke="#000000" stroke-width="0.65" stroke-linecap="round" stroke-linejoin="bevel" points="393.073,132.407 393.073,118.347"/>
<polyline class="Stem" fill="none" stroke="#000000" stroke-width="0.65" stroke-linecap="round" stroke-linejoin="bevel" points="376.664,129.907 376.664,116.263"/>
<polyline class="Stem" fill="none" stroke="#000000" stroke-width="0.65" stroke-linecap="round" stroke-linejoin="bevel" points="360.255,127.407 360.255,114.18"/>
<polyline class="Stem" fill="none" stroke="#000000" stroke-width="0.65" stroke-linecap="round" stroke-linejoin="bevel" points="343.845,124.907 343.845,112.097"/>
<polyline class="Stem" fill="none" stroke="#000000" stroke-width="0.65" stroke-linecap="round" stroke-linejoin="bevel" points="319.493,122.407 319.493,108.347"/>
<polyline class="Stem" fill="none" stroke="#000000" stroke-width="0.65" stroke-linecap="round" stroke-linejoin="bevel" points="301.941,119.907 301.941,108.347"/>
<polyline class="Stem" fill="none" stroke="#000000" stroke-width="0.65" stroke-linecap="round" stroke-linejoin="bevel" points="284.389,122.407 284.389,108.347"/>
<polyline class="Stem" fill="none" stroke="#000000" stroke-width="0.65" stroke-linecap="round" stroke-linejoin="bevel" points="266.837,124.907 266.837,108.347"/>
<polyline class="Stem" fill="none" stroke="#000000" stroke-width="0.65" stroke-linecap="round" stroke-linejoin="bevel" points="239.252,99.2856 239.252,118.347"/>
<polyline class="Stem" fill="none" stroke="#000000" stroke-width="0.65" stroke-linecap="round" stroke-linejoin="bevel" points="221.699,101.786 221.699,118.763"/>
<polyline class="Stem" fill="none" stroke="#000000" stroke-width="0.65" stroke-linecap="round" stroke-linejoin="bevel" points="204.147,104.286 204.147,119.18"/>
<polyline class="Stem" fill="none" stroke="#000000" stroke-width="0.65" stroke-linecap="round" stroke-linejoin="bevel" points="186.595,106.786 186.595,119.597"/>
<polyline class="Stem" fill="none" stroke="#000000" stroke-width="0.65" stroke-linecap="round" stroke-linejoin="bevel" points="165.639,109.286 165.639,123.347"/>
<polyline class="Stem" fill="none" stroke="#000000" stroke-width="0.65" stroke-linecap="round" stroke-linejoin="bevel" points="151.484,111.786 151.484,125.43"/>
<polyline class="Stem" fill="none" stroke="#000000" stroke-width="0.65" stroke-linecap="round" stroke-linejoin="bevel" points="137.328,114.286 137.328,127.513"/>
<polyline class="Stem" fill="none" stroke="#000000" stroke-width="0.65" stroke-linecap="round" stroke-linejoin="bevel" points="123.172,116.786 123.172,129.597"/>
<polyline class="Stem" fill="none" stroke="#000000" stroke-width="0.65" stroke-linecap="round" stroke-linejoin="bevel" points="109.016,119.286 109.016,134.597"/>
<polyline class="Stem" fill="none" stroke="#000000" stroke-width="0.65" stroke-linecap="round" stroke-linejoin="bevel" points="94.8599,121.786 94.8599,136.263"/>
<polyline class="Stem" fill="none" stroke="#000000" stroke-width="0.65" stroke-linecap="round" stroke-linejoin="bevel" points="80.7039,124.286 80.7039,137.93"/>
<polyline class="Stem" fill="none" stroke="#000000" stroke-width="0.65" stroke-linecap="round" stroke-linejoin="bevel" points="66.548,126.786 66.548,139.597"/>
<path class="Note" d="M551.017,124.538 C551.017,124.317 550.932,124.128 550.763,123.972 C550.594,123.802 550.398,123.718 550.177,123.718 C549.786,123.718 548.999,124.108 547.814,124.889 C546.59,125.684 545.841,126.25 545.568,126.589 C545.424,126.771 545.353,126.96 545.353,127.155 C545.353,127.376 545.437,127.565 545.607,127.722 C545.763,127.891 545.958,127.975 546.193,127.975 C546.57,127.975 547.365,127.585 548.576,126.804 C549.773,126.022 550.516,125.456 550.802,125.104 C550.945,124.935 551.017,124.746 551.017,124.538 M549.982,123.093 C551.102,123.093 551.661,123.574 551.661,124.538 C551.661,125.007 551.525,125.554 551.251,126.179 C550.978,126.791 550.613,127.259 550.158,127.585 C549.155,128.262 547.898,128.6 546.388,128.6 C545.268,128.6 544.708,128.119 544.708,127.155 C544.708,126.725 544.845,126.185 545.118,125.534 C545.379,124.909 545.743,124.434 546.212,124.108 C547.215,123.431 548.471,123.093 549.982,123.093"/>
<path class="Note" d="M534.072,120.593 C534.697,120.593 535.224,120.755 535.654,121.081 C536.058,121.432 536.26,121.875 536.26,122.409 C536.26,123.307 535.797,124.147 534.873,124.929 C533.935,125.71 532.933,126.1 531.865,126.1 C531.24,126.1 530.713,125.938 530.283,125.612 C529.879,125.261 529.678,124.818 529.678,124.284 C529.678,123.386 530.146,122.546 531.084,121.764 C531.995,120.983 532.991,120.593 534.072,120.593"/>
<path class="Note" d="M518.861,118.093 C519.486,118.093 520.013,118.255 520.443,118.581 C520.846,118.932 521.048,119.375 521.048,119.909 C521.048,120.807 520.586,121.647 519.662,122.429 C518.724,123.21 517.721,123.6 516.654,123.6 C516.029,123.6 515.501,123.438 515.072,123.112 C514.668,122.761 514.466,122.318 514.466,121.784 C514.466,120.886 514.935,120.046 515.873,119.264 C516.784,118.483 517.78,118.093 518.861,118.093"/>
<path class="Note" d="M503.65,115.593 C504.275,115.593 504.802,115.755 505.232,116.081 C505.635,116.432 505.837,116.875 505.837,117.409 C505.837,118.307 505.375,119.147 504.45,119.929 C503.513,120.71 502.51,121.1 501.443,121.1 C500.818,121.1 500.29,120.938 499.86,120.612 C499.457,120.261 499.255,119.818 499.255,119.284 C499.255,118.386 499.724,117.546 500.661,116.764 C501.573,115.983 502.569,115.593 503.65,115.593"/>
<path class="Note" d="M488.438,113.093 C489.063,113.093 489.591,113.255 490.02,113.581 C490.424,113.932 490.626,114.375 490.626,114.909 C490.626,115.807 490.164,116.647 489.239,117.429 C488.302,118.21 487.299,118.6 486.231,118.6 C485.606,118.6 485.079,118.438 484.649,118.112 C484.246,117.761 484.044,117.318 484.044,116.784 C484.044,115.886 484.513,115.046 485.45,114.264 C486.361,113.483 487.358,113.093 488.438,113.093"/>
<path class="Note" d="M465.229,110.593 C465.854,110.593 466.381,110.755 466.811,111.081 C467.215,111.432 467.417,111.875 467.417,112.409 C467.417,113.307 466.954,114.147 466.03,114.929 C465.092,115.71 464.09,116.1 463.022,116.1 C462.397,116.1 461.87,115.938 461.44,115.612 C461.036,115.261 460.835,114.818 460.835,114.284 C460.835,113.386 461.303,112.546 462.241,111.764 C463.152,110.983 464.148,110.593 465.229,110.593"/>
<path class="Note" d="M448.82,108.093 C449.445,108.093 449.972,108.255 450.402,108.581 C450.806,108.932 451.007,109.375 451.007,109.909 C451.007,110.807 450.545,111.647 449.621,112.429 C448.683,113.21 447.681,113.6 446.613,113.6 C445.988,113.6 445.46,113.438 445.031,113.112 C444.627,112.761 444.425,112.318 444.425,111.784 C444.425,110.886 444.894,110.046 445.832,109.264 C446.743,108.483 447.739,108.093 448.82,108.093"/>
<path class="Note" d="M432.411,105.593 C433.036,105.593 433.563,105.755 433.993,106.081 C434.396,106.432 434.598,106.875 434.598,107.409 C434.598,108.307 434.136,109.147 433.211,109.929 C432.274,110.71 431.271,111.1 430.204,111.1 C429.579,111.1 429.051,110.938 428.622,110.612 C428.218,110.261 428.016,109.818 428.016,109.284 C428.016,108.386 428.485,107.546 429.422,106.764 C430.334,105.983 431.33,105.593 432.411,105.593"/>
<path class="Note" d="M416.001,103.093 C416.626,103.093 417.154,103.255 417.583,103.581 C417.987,103.932 418.189,104.375 418.189,104.909 C418.189,105.807 417.727,106.647 416.802,107.429 C415.865,108.21 414.862,108.6 413.794,108.6 C413.169,108.6 412.642,108.438 412.212,108.112 C411.809,107.761 411.607,107.318 411.607,106.784 C411.607,105.886 412.076,105.046 413.013,104.264 C413.925,103.483 414.921,103.093 416.001,103.093"/>
<path class="Note" d="M391.21,130.593 C391.835,130.593 392.362,130.755 392.792,131.081 C393.196,131.432 393.397,131.875 393.397,132.409 C393.397,133.307 392.935,134.147 392.011,134.929 C391.073,135.71 390.071,136.1 389.003,136.1 C388.378,136.1 387.85,135.938 387.421,135.612 C387.017,135.261 386.815,134.818 386.815,134.284 C386.815,133.386 387.284,132.546 388.222,131.764 C389.133,130.983 390.129,130.593 391.21,130.593"/>
<path class="Note" d="M374.801,128.093 C375.426,128.093 375.953,128.255 376.383,128.581 C376.786,128.932 376.988,129.375 376.988,129.909 C376.988,130.807 376.526,131.647 375.601,132.429 C374.664,133.21 373.661,133.6 372.594,133.6 C371.969,133.6 371.441,133.438 371.012,133.112 C370.608,132.761 370.406,132.318 370.406,131.784 C370.406,130.886 370.875,130.046 371.812,129.264 C372.724,128.483 373.72,128.093 374.801,128.093"/>
<path class="Note" d="M358.391,125.593 C359.016,125.593 359.544,125.755 359.973,126.081 C360.377,126.432 360.579,126.875 360.579,127.409 C360.579,128.307 360.117,129.147 359.192,129.929 C358.255,130.71 357.252,131.1 356.184,131.1 C355.559,131.1 355.032,130.938 354.602,130.612 C354.199,130.261 353.997,129.818 353.997,129.284 C353.997,128.386 354.466,127.546 355.403,126.764 C356.315,125.983 357.311,125.593 358.391,125.593"/>
<path class="Note" d="M341.982,123.093 C342.607,123.093 343.135,123.255 343.564,123.581 C343.968,123.932 344.17,124.375 344.17,124.909 C344.17,125.807 343.707,126.647 342.783,127.429 C341.845,128.21 340.843,128.6 339.775,128.6 C339.15,128.6 338.623,128.438 338.193,128.112 C337.789,127.761 337.588,127.318 337.588,126.784 C337.588,125.886 338.056,125.046 338.994,124.264 C339.905,123.483 340.901,123.093 341.982,123.093"/>
<path class="Note" d="M317.63,120.593 C318.255,120.593 318.782,120.755 319.212,121.081 C319.616,121.432 319.818,121.875 319.818,122.409 C319.818,123.307 319.355,124.147 318.431,124.929 C317.493,125.71 316.491,126.1 315.423,126.1 C314.798,126.1 314.271,125.938 313.841,125.612 C313.437,125.261 313.236,124.818 313.236,124.284 C313.236,123.386 313.704,122.546 314.642,121.764 C315.553,120.983 316.549,120.593 317.63,120.593"/>
<path class="Note" d="M300.078,118.093 C300.703,118.093 301.23,118.255 301.66,118.581 C302.064,118.932 302.266,119.375 302.266,119.909 C302.266,120.807 301.803,121.647 300.879,122.429 C299.941,123.21 298.939,123.6 297.871,123.6 C297.246,123.6 296.719,123.438 296.289,123.112 C295.885,122.761 295.684,122.318 295.684,121.784 C295.684,120.886 296.152,120.046 297.09,119.264 C298.001,118.483 298.997,118.093 300.078,118.093"/>
<path class="Note" d="M282.526,120.593 C283.151,120.593 283.678,120.755 284.108,121.081 C284.512,121.432 284.713,121.875 284.713,122.409 C284.713,123.307 284.251,124.147 283.327,124.929 C282.389,125.71 281.387,126.1 280.319,126.1 C279.694,126.1 279.167,125.938 278.737,125.612 C278.333,125.261 278.131,124.818 278.131,124.284 C278.131,123.386 278.6,122.546 279.538,121.764 C280.449,120.983 281.445,120.593 282.526,120.593"/>
<path class="Note" d="M264.974,123.093 C265.599,123.093 266.126,123.255 266.556,123.581 C266.96,123.932 267.161,124.375 267.161,124.909 C267.161,125.807 266.699,126.647 265.775,127.429 C264.837,128.21 263.835,128.6 262.767,128.6 C262.142,128.6 261.615,128.438 261.185,128.112 C260.781,127.761 260.579,127.318 260.579,126.784 C260.579,125.886 261.048,125.046 261.986,124.264 C262.897,123.483 263.893,123.093 264.974,123.093"/>
<path class="Note" d="M243.321,95.5926 C243.946,95.5926 244.473,95.7553 244.903,96.0809 C245.307,96.4324 245.509,96.8751 245.509,97.409 C245.509,98.3074 245.046,99.1473 244.122,99.9285 C243.184,100.71 242.182,101.1 241.114,101.1 C240.489,101.1 239.962,100.938 239.532,100.612 C239.128,100.261 238.927,99.8178 238.927,99.284 C238.927,98.3856 239.395,97.5457 240.333,96.7645 C241.244,95.9832 242.24,95.5926 243.321,95.5926"/>
<path class="Note" d="M225.769,98.0926 C226.394,98.0926 226.921,98.2553 227.351,98.5809 C227.755,98.9324 227.957,99.3751 227.957,99.909 C227.957,100.807 227.494,101.647 226.57,102.429 C225.632,103.21 224.63,103.6 223.562,103.6 C222.937,103.6 222.41,103.438 221.98,103.112 C221.576,102.761 221.374,102.318 221.374,101.784 C221.374,100.886 221.843,100.046 222.781,99.2645 C223.692,98.4832 224.688,98.0926 225.769,98.0926"/>
<path class="Note" d="M208.217,100.593 C208.842,100.593 209.369,100.755 209.799,101.081 C210.203,101.432 210.404,101.875 210.404,102.409 C210.404,103.307 209.942,104.147 209.018,104.929 C208.08,105.71 207.078,106.1 206.01,106.1 C205.385,106.1 204.858,105.938 204.428,105.612 C204.024,105.261 203.822,104.818 203.822,104.284 C203.822,103.386 204.291,102.546 205.229,101.764 C206.14,100.983 207.136,100.593 208.217,100.593"/>
<path class="Note" d="M190.665,103.093 C191.29,103.093 191.817,103.255 192.247,103.581 C192.651,103.932 192.852,104.375 192.852,104.909 C192.852,105.807 192.39,106.647 191.466,107.429 C190.528,108.21 189.526,108.6 188.458,108.6 C187.833,108.6 187.306,108.438 186.876,108.112 C186.472,107.761 186.27,107.318 186.27,106.784 C186.27,105.886 186.739,105.046 187.677,104.264 C188.588,103.483 189.584,103.093 190.665,103.093"/>
<path class="Note" d="M169.709,105.593 C170.334,105.593 170.861,105.755 171.291,106.081 C171.695,106.432 171.896,106.875 171.896,107.409 C171.896,108.307 171.434,109.147 170.51,109.929 C169.572,110.71 168.57,111.1 167.502,111.1 C166.877,111.1 166.35,110.938 165.92,110.612 C165.516,110.261 165.314,109.818 165.314,109.284 C165.314,108.386 165.783,107.546 166.721,106.764 C167.632,105.983 168.628,105.593 169.709,105.593"/>
<path class="Note" d="M155.553,108.093 C156.178,108.093 156.705,108.255 157.135,108.581 C157.539,108.932 157.741,109.375 157.741,109.909 C157.741,110.807 157.278,111.647 156.354,112.429 C155.416,113.21 154.414,113.6 153.346,113.6 C152.721,113.6 152.194,113.438 151.764,113.112 C151.36,112.761 151.159,112.318 151.159,111.784 C151.159,110.886 151.627,110.046 152.565,109.264 C153.476,108.483 154.472,108.093 155.553,108.093"/>
<path class="Note" d="M141.397,110.593 C142.022,110.593 142.549,110.755 142.979,111.081 C143.383,111.432 143.585,111.875 143.585,112.409 C143.585,113.307 143.122,114.147 142.198,114.929 C141.26,115.71 140.258,116.1 139.19,116.1 C138.565,116.1 138.038,115.938 137.608,115.612 C137.204,115.261 137.003,114.818 137.003,114.284 C137.003,113.386 137.471,112.546 138.409,111.764 C139.32,110.983 140.316,110.593 141.397,110.593"/>
<path class="Note" d="M127.241,113.093 C127.866,113.093 128.394,113.255 128.823,113.581 C129.227,113.932 129.429,114.375 129.429,114.909 C129.429,115.807 128.966,116.647 128.042,117.429 C127.105,118.21 126.102,118.6 125.034,118.6 C124.409,118.6 123.882,118.438 123.452,118.112 C123.049,117.761 122.847,117.318 122.847,116.784 C122.847,115.886 123.315,115.046 124.253,114.264 C125.164,113.483 126.16,113.093 127.241,113.093"/>
<path class="Note" d="M113.085,115.593 C113.71,115.593 114.238,115.755 114.667,116.081 C115.071,116.432 115.273,116.875 115.273,117.409 C115.273,118.307 114.811,119.147 113.886,119.929 C112.949,120.71 111.946,121.1 110.878,121.1 C110.253,121.1 109.726,120.938 109.296,120.612 C108.893,120.261 108.691,119.818 108.691,119.284 C108.691,118.386 109.16,117.546 110.097,116.764 C111.008,115.983 112.005,115.593 113.085,115.593"/>
<path class="Note" d="M98.9294,118.093 C99.5544,118.093 100.082,118.255 100.511,118.581 C100.915,118.932 101.117,119.375 101.117,119.909 C101.117,120.807 100.655,121.647 99.7302,122.429 C98.7927,123.21 97.7901,123.6 96.7224,123.6 C96.0974,123.6 95.57,123.438 95.1403,123.112 C94.7367,122.761 94.5349,122.318 94.5349,121.784 C94.5349,120.886 95.0036,120.046 95.9411,119.264 C96.8526,118.483 97.8487,118.093 98.9294,118.093"/>
<path class="Note" d="M84.7735,120.593 C85.3985,120.593 85.9258,120.755 86.3555,121.081 C86.7592,121.432 86.961,121.875 86.961,122.409 C86.961,123.307 86.4987,124.147 85.5743,124.929 C84.6368,125.71 83.6342,126.1 82.5664,126.1 C81.9414,126.1 81.4141,125.938 80.9844,125.612 C80.5808,125.261 80.3789,124.818 80.3789,124.284 C80.3789,123.386 80.8477,122.546 81.7852,121.764 C82.6967,120.983 83.6928,120.593 84.7735,120.593"/>
<path class="Note" d="M70.6176,123.093 C71.2426,123.093 71.7699,123.255 72.1996,123.581 C72.6032,123.932 72.8051,124.375 72.8051,124.909 C72.8051,125.807 72.3428,126.647 71.4183,127.429 C70.4808,128.21 69.4782,128.6 68.4105,128.6 C67.7855,128.6 67.2582,128.438 66.8285,128.112 C66.4249,127.761 66.223,127.318 66.223,126.784 C66.223,125.886 66.6918,125.046 67.6293,124.264 C68.5407,123.483 69.5368,123.093 70.6176,123.093"/>
<path class="Clef" transform="matrix(0.800001,0,0,0.800001,395.898,118.347)" d="M11.4258,-1.77734 C11.2305,-1.97266 11.1328,-2.21354 11.1328,-2.5 C11.1328,-2.78646 11.2305,-3.02734 11.4258,-3.22266 C11.6211,-3.41797 11.862,-3.51562 12.1484,-3.51562 C12.4349,-3.51562 12.6758,-3.41797 12.8711,-3.22266 C13.0664,-3.02734 13.1641,-2.78646 13.1641,-2.5 C13.1641,-2.21354 13.0664,-1.97266 12.8711,-1.77734 C12.6758,-1.58203 12.4349,-1.48438 12.1484,-1.48438 C11.862,-1.48438 11.6211,-1.58203 11.4258,-1.77734 M11.4258,3.22266 C11.2305,3.02734 11.1328,2.78646 11.1328,2.5 C11.1328,2.21354 11.2305,1.97266 11.4258,1.77734 C11.6211,1.58203 11.862,1.48438 12.1484,1.48438 C12.4349,1.48438 12.6758,1.58203 12.8711,1.77734 C13.0664,1.97266 13.1641,2.21354 13.1641,2.5 C13.1641,2.78646 13.0664,3.02734 12.8711,3.22266 C12.6758,3.41797 12.4349,3.51562 12.1484,3.51562 C11.862,3.51562 11.6211,3.41797 11.4258,3.22266 M4.64844,-5.25391 C6.38021,-5.25391 7.79948,-4.81771 8.90625,-3.94531 C9.97396,-3.03385 10.5078,-1.79688 10.5078,-0.234375 C10.5078,0.820312 10.2995,1.78385 9.88281,2.65625 C9.49219,3.56771 8.97786,4.375 8.33984,5.07812 C7.6888,5.79427 6.90104,6.47135 5.97656,7.10938 C5.07812,7.73438 4.15365,8.29427 3.20312,8.78906 C1.27604,9.76562 0.208333,10.2539 0,10.2539 C-0.169271,10.2539 -0.253906,10.1693 -0.253906,10 C-0.253906,9.9349 -0.227865,9.8763 -0.175781,9.82422 C0.488281,9.43359 1.30208,8.93229 2.26562,8.32031 C2.89062,7.91667 3.61979,7.35677 4.45312,6.64062 C5.26042,5.96354 5.88542,5.32552 6.32812,4.72656 C6.78385,4.14062 7.20052,3.41146 7.57812,2.53906 C7.90365,1.66667 8.06641,0.807292 8.06641,-0.0390625 C8.06641,-1.30208 7.75391,-2.40234 7.12891,-3.33984 C6.50391,-4.27734 5.67708,-4.74609 4.64844,-4.74609 C3.91927,-4.74609 3.29427,-4.51172 2.77344,-4.04297 C2.21354,-3.5612 1.8099,-2.95573 1.5625,-2.22656 C1.8099,-2.33073 2.03776,-2.38281 2.24609,-2.38281 C2.79297,-2.38281 3.26172,-2.1875 3.65234,-1.79688 C4.04297,-1.38021 4.23828,-0.904948 4.23828,-0.371094 C4.23828,0.188802 4.04948,0.690104 3.67188,1.13281 C3.26823,1.53646 2.79297,1.73828 2.24609,1.73828 C1.66016,1.73828 1.13281,1.53646 0.664062,1.13281 C0.221354,0.690104 0,0.188802 0,-0.371094 C0,-1.71224 0.455729,-2.85807 1.36719,-3.80859 C2.26562,-4.77214 3.35938,-5.25391 4.64844,-5.25391"/>
<path class="Clef" transform="matrix(0.800001,0,0,0.800001,248.009,128.347)" d="M7.34375,-5.11719 C7.34375,-5.11719 7.38281,-5.11719 7.46094,-5.11719 C7.51302,-5.13021 7.55859,-5.13672 7.59766,-5.13672 C9.05599,-5.13672 10.2539,-4.6224 11.1914,-3.59375 C12.1289,-2.57812 12.5977,-1.39323 12.5977,-0.0390625 C12.5977,1.64062 11.901,3.00781 10.5078,4.0625 C10.1432,4.34896 9.66797,4.58333 9.08203,4.76562 C9.14714,5.61198 9.17969,6.29557 9.17969,6.81641 C9.17969,6.92057 9.16667,7.29818 9.14062,7.94922 C9.08854,9.16016 8.67188,10.2083 7.89062,11.0938 C7.13542,11.9661 6.19792,12.4023 5.07812,12.4023 C4.02344,12.4023 3.125,12.0312 2.38281,11.2891 C1.64062,10.5339 1.26953,9.6224 1.26953,8.55469 C1.26953,7.99479 1.48438,7.51953 1.91406,7.12891 C2.35677,6.73828 2.87109,6.54297 3.45703,6.54297 C3.97786,6.54297 4.41406,6.74479 4.76562,7.14844 C5.13021,7.52604 5.3125,7.99479 5.3125,8.55469 C5.3125,9.0625 5.13021,9.4987 4.76562,9.86328 C4.40104,10.2279 3.96484,10.4102 3.45703,10.4102 C3.2487,10.4102 3.04688,10.3711 2.85156,10.293 C3.42448,11.1393 4.1862,11.5625 5.13672,11.5625 C6.03516,11.5625 6.77083,11.1979 7.34375,10.4688 C7.94271,9.71354 8.26823,8.83464 8.32031,7.83203 C8.34635,7.20703 8.35938,6.84896 8.35938,6.75781 C8.35938,6.02865 8.33333,5.42969 8.28125,4.96094 C7.63021,5.0651 7.05078,5.11719 6.54297,5.11719 C4.73307,5.11719 3.1901,4.40104 1.91406,2.96875 C0.664062,1.52344 0.0390625,-0.195312 0.0390625,-2.1875 C0.0390625,-2.60417 0.078125,-3.02734 0.15625,-3.45703 C0.234375,-3.80859 0.332031,-4.19271 0.449219,-4.60938 C0.514323,-4.84375 0.690104,-5.22135 0.976562,-5.74219 C1.08073,-5.89844 1.19792,-6.09375 1.32812,-6.32812 C1.45833,-6.5625 1.54948,-6.71875 1.60156,-6.79688 C1.73177,-7.05729 1.98568,-7.40885 2.36328,-7.85156 C2.46745,-7.96875 2.57487,-8.09896 2.68555,-8.24219 C2.79622,-8.38542 2.89062,-8.5026 2.96875,-8.59375 C3.04688,-8.6849 3.10547,-8.75651 3.14453,-8.80859 C3.18359,-8.86068 3.47656,-9.20573 4.02344,-9.84375 C4.15365,-9.97396 4.2806,-10.1139 4.4043,-10.2637 C4.52799,-10.4134 4.62891,-10.5306 4.70703,-10.6152 C4.78516,-10.6999 4.84375,-10.7617 4.88281,-10.8008 C4.41406,-12.3503 4.12109,-13.5872 4.00391,-14.5117 C3.91276,-15.2539 3.86719,-16.2695 3.86719,-17.5586 C3.86719,-18.6914 4.1276,-19.7526 4.64844,-20.7422 C5.15625,-21.7708 5.86589,-22.6107 6.77734,-23.2617 C6.84245,-23.3008 6.90755,-23.3203 6.97266,-23.3203 C7.0638,-23.3203 7.12891,-23.3008 7.16797,-23.2617 C7.87109,-22.4154 8.47656,-21.3151 8.98438,-19.9609 C9.50521,-18.6068 9.76562,-17.3763 9.76562,-16.2695 C9.76562,-15.0195 9.46615,-13.8477 8.86719,-12.7539 C8.1901,-11.5951 7.31771,-10.3971 6.25,-9.16016 C6.52344,-8.30078 6.88802,-6.95312 7.34375,-5.11719 M9.00391,3.96484 C9.68099,3.71745 10.2083,3.29427 10.5859,2.69531 C11.0026,2.1224 11.2109,1.47786 11.2109,0.761719 C11.2109,-0.16276 10.8984,-0.983073 10.2734,-1.69922 C9.63542,-2.44141 8.82161,-2.85807 7.83203,-2.94922 C8.39193,-0.201823 8.78255,2.10286 9.00391,3.96484 M1.44531,-0.546875 C1.44531,0.742188 1.96615,1.875 3.00781,2.85156 C4.07552,3.80208 5.27344,4.27734 6.60156,4.27734 C7.14844,4.27734 7.68229,4.23828 8.20312,4.16016 C7.99479,2.18099 7.58464,-0.188802 6.97266,-2.94922 C6.23047,-2.87109 5.63802,-2.61068 5.19531,-2.16797 C4.76562,-1.71224 4.55078,-1.19792 4.55078,-0.625 C4.55078,0.364583 5.07812,1.16536 6.13281,1.77734 C6.22396,1.86849 6.26953,1.96615 6.26953,2.07031 C6.26953,2.17448 6.22396,2.27214 6.13281,2.36328 C6.05469,2.45443 5.95703,2.5 5.83984,2.5 C5.82682,2.5 5.76823,2.48698 5.66406,2.46094 C4.92188,2.05729 4.34896,1.53646 3.94531,0.898438 C3.56771,0.221354 3.37891,-0.46224 3.37891,-1.15234 C3.37891,-2.05078 3.65885,-2.86458 4.21875,-3.59375 C4.80469,-4.32292 5.56641,-4.79167 6.50391,-5 C6.13932,-6.45833 5.83984,-7.59766 5.60547,-8.41797 C5.39714,-8.18359 5.14648,-7.90039 4.85352,-7.56836 C4.56055,-7.23633 4.38802,-7.03776 4.33594,-6.97266 C3.86719,-6.36068 3.50911,-5.88542 3.26172,-5.54688 C2.81901,-4.9349 2.49349,-4.40755 2.28516,-3.96484 C2.0638,-3.47005 1.86849,-2.92969 1.69922,-2.34375 C1.52995,-1.78385 1.44531,-1.1849 1.44531,-0.546875 M7.96875,-20.4102 C6.99219,-19.9284 6.22396,-19.2383 5.66406,-18.3398 C5.09115,-17.4154 4.80469,-16.4193 4.80469,-15.3516 C4.80469,-14.4141 5.03906,-13.151 5.50781,-11.5625 C6.44531,-12.6953 7.14844,-13.7435 7.61719,-14.707 C8.11198,-15.7227 8.35938,-16.7839 8.35938,-17.8906 C8.35938,-18.724 8.22917,-19.5638 7.96875,-20.4102"/>
<path class="Clef" d="M42.9722,116.569 C42.7769,116.374 42.6793,116.133 42.6793,115.847 C42.6793,115.56 42.7769,115.319 42.9722,115.124 C43.1675,114.929 43.4084,114.831 43.6949,114.831 C43.9813,114.831 44.2222,114.929 44.4175,115.124 C44.6129,115.319 44.7105,115.56 44.7105,115.847 C44.7105,116.133 44.6129,116.374 44.4175,116.569 C44.2222,116.764 43.9813,116.862 43.6949,116.862 C43.4084,116.862 43.1675,116.764 42.9722,116.569 M42.9722,121.569 C42.7769,121.374 42.6793,121.133 42.6793,120.847 C42.6793,120.56 42.7769,120.319 42.9722,120.124 C43.1675,119.929 43.4084,119.831 43.6949,119.831 C43.9813,119.831 44.2222,119.929 44.4175,120.124 C44.6129,120.319 44.7105,120.56 44.7105,120.847 C44.7105,121.133 44.6129,121.374 44.4175,121.569 C44.2222,121.764 43.9813,121.862 43.6949,121.862 C43.4084,121.862 43.1675,121.764 42.9722,121.569 M36.1949,113.093 C37.9267,113.093 39.3459,113.529 40.4527,114.401 C41.5204,115.313 42.0543,116.55 42.0543,118.112 C42.0543,119.167 41.8459,120.13 41.4293,121.003 C41.0386,121.914 40.5243,122.722 39.8863,123.425 C39.2353,124.141 38.4475,124.818 37.523,125.456 C36.6246,126.081 35.7001,126.641 34.7496,127.136 C32.8225,128.112 31.7548,128.6 31.5465,128.6 C31.3772,128.6 31.2925,128.516 31.2925,128.347 C31.2925,128.281 31.3186,128.223 31.3707,128.171 C32.0347,127.78 32.8485,127.279 33.8121,126.667 C34.4371,126.263 35.1662,125.703 35.9996,124.987 C36.8069,124.31 37.4319,123.672 37.8746,123.073 C38.3303,122.487 38.747,121.758 39.1246,120.886 C39.4501,120.013 39.6129,119.154 39.6129,118.307 C39.6129,117.044 39.3004,115.944 38.6754,115.007 C38.0504,114.069 37.2235,113.6 36.1949,113.6 C35.4657,113.6 34.8407,113.835 34.3199,114.304 C33.76,114.785 33.3563,115.391 33.109,116.12 C33.3563,116.016 33.5842,115.964 33.7925,115.964 C34.3394,115.964 34.8082,116.159 35.1988,116.55 C35.5894,116.966 35.7847,117.442 35.7847,117.975 C35.7847,118.535 35.5959,119.037 35.2183,119.479 C34.8147,119.883 34.3394,120.085 33.7925,120.085 C33.2066,120.085 32.6793,119.883 32.2105,119.479 C31.7678,119.037 31.5465,118.535 31.5465,117.975 C31.5465,116.634 32.0022,115.488 32.9136,114.538 C33.8121,113.574 34.9058,113.093 36.1949,113.093"/>
<path class="TimeSig" d="M53.9652,113.6 C54.3558,113.6 54.6879,113.555 54.9613,113.464 C55.2347,113.373 55.4105,113.327 55.4887,113.327 C55.5798,113.327 55.6514,113.353 55.7035,113.405 C55.7426,113.444 55.7686,113.49 55.7816,113.542 C55.7816,113.568 55.7686,113.607 55.7426,113.659 L50.059,120.261 L53.3988,120.261 L53.3988,117.643 C53.3988,117.474 53.4444,117.331 53.5355,117.214 C53.6918,117.083 53.822,117.005 53.9262,116.979 C54.0954,116.901 54.3038,116.719 54.5512,116.432 C54.7595,116.198 55.0069,115.788 55.2933,115.202 C55.3324,115.124 55.391,115.085 55.4691,115.085 C55.6254,115.085 55.7165,115.176 55.7426,115.358 L55.7426,120.261 L57.1683,120.261 C57.3506,120.261 57.4548,120.358 57.4808,120.554 C57.4808,120.749 57.3767,120.847 57.1683,120.847 L55.7426,120.847 L55.7426,121.003 C55.7426,121.524 55.8728,121.966 56.1332,122.331 C56.4327,122.695 56.7842,122.878 57.1879,122.878 C57.3441,122.878 57.4222,122.956 57.4222,123.112 C57.4222,123.268 57.3441,123.347 57.1879,123.347 C56.9144,123.347 56.4717,123.307 55.8597,123.229 C55.2998,123.138 54.8637,123.093 54.5512,123.093 C54.2256,123.093 53.7894,123.138 53.2426,123.229 C52.6566,123.307 52.2204,123.347 51.934,123.347 C51.7777,123.347 51.6996,123.268 51.6996,123.112 C51.6996,122.956 51.7777,122.878 51.934,122.878 C52.3376,122.878 52.6892,122.695 52.9887,122.331 C53.2621,121.966 53.3988,121.524 53.3988,121.003 L53.3988,120.847 L50.059,120.847 C49.8376,120.847 49.6814,120.794 49.5902,120.69 C49.486,120.612 49.434,120.508 49.434,120.378 C49.434,120.339 49.5316,120.202 49.7269,119.968 C49.9483,119.707 50.1827,119.388 50.4301,119.011 C50.7165,118.568 50.99,118.112 51.2504,117.643 C51.5368,117.11 51.7647,116.498 51.934,115.807 C52.1293,115.104 52.2269,114.388 52.2269,113.659 C52.2269,113.451 52.3181,113.347 52.5004,113.347 C52.5394,113.347 52.6241,113.366 52.7543,113.405 C52.7933,113.418 52.8747,113.438 52.9984,113.464 C53.1221,113.49 53.223,113.516 53.3012,113.542 C53.5355,113.581 53.7569,113.6 53.9652,113.6"/>
<path class="TimeSig" d="M53.9652,123.6 C54.3558,123.6 54.6879,123.555 54.9613,123.464 C55.2347,123.373 55.4105,123.327 55.4887,123.327 C55.5798,123.327 55.6514,123.353 55.7035,123.405 C55.7426,123.444 55.7686,123.49 55.7816,123.542 C55.7816,123.568 55.7686,123.607 55.7426,123.659 L50.059,130.261 L53.3988,130.261 L53.3988,127.643 C53.3988,127.474 53.4444,127.331 53.5355,127.214 C53.6918,127.083 53.822,127.005 53.9262,126.979 C54.0954,126.901 54.3038,126.719 54.5512,126.432 C54.7595,126.198 55.0069,125.788 55.2933,125.202 C55.3324,125.124 55.391,125.085 55.4691,125.085 C55.6254,125.085 55.7165,125.176 55.7426,125.358 L55.7426,130.261 L57.1683,130.261 C57.3506,130.261 57.4548,130.358 57.4808,130.554 C57.4808,130.749 57.3767,130.847 57.1683,130.847 L55.7426,130.847 L55.7426,131.003 C55.7426,131.524 55.8728,131.966 56.1332,132.331 C56.4327,132.695 56.7842,132.878 57.1879,132.878 C57.3441,132.878 57.4222,132.956 57.4222,133.112 C57.4222,133.268 57.3441,133.347 57.1879,133.347 C56.9144,133.347 56.4717,133.307 55.8597,133.229 C55.2998,133.138 54.8637,133.093 54.5512,133.093 C54.2256,133.093 53.7894,133.138 53.2426,133.229 C52.6566,133.307 52.2204,133.347 51.934,133.347 C51.7777,133.347 51.6996,133.268 51.6996,133.112 C51.6996,132.956 51.7777,132.878 51.934,132.878 C52.3376,132.878 52.6892,132.695 52.9887,132.331 C53.2621,131.966 53.3988,131.524 53.3988,131.003 L53.3988,130.847 L50.059,130.847 C49.8376,130.847 49.6814,130.794 49.5902,130.69 C49.486,130.612 49.434,130.508 49.434,130.378 C49.434,130.339 49.5316,130.202 49.7269,129.968 C49.9483,129.707 50.1827,129.388 50.4301,129.011 C50.7165,128.568 50.99,128.112 51.2504,127.643 C51.5368,127.11 51.7647,126.498 51.934,125.807 C52.1293,125.104 52.2269,124.388 52.2269,123.659 C52.2269,123.451 52.3181,123.347 52.5004,123.347 C52.5394,123.347 52.6241,123.366 52.7543,123.405 C52.7933,123.418 52.8747,123.438 52.9984,123.464 C53.1221,123.49 53.223,123.516 53.3012,123.542 C53.5355,123.581 53.7569,123.6 53.9652,123.6"/>
<path class="Beam" fill-rule="evenodd" d="M484.044,130.847 L530.328,137.186 L530.328,139.686 L484.044,133.347 L484.044,130.847 "/>
<path class="Beam" fill-rule="evenodd" d="M411.607,120.847 L461.485,127.179 L461.485,129.679 L411.607,123.347 L411.607,120.847 "/>
<path class="Beam" fill-rule="evenodd" d="M343.52,110.764 L393.398,117.097 L393.398,119.597 L343.52,113.264 L343.52,110.764 "/>
<path class="Beam" fill-rule="evenodd" d="M266.512,107.096 L319.818,107.096 L319.818,109.597 L266.512,109.597 L266.512,107.096 "/>
<path class="Beam" fill-rule="evenodd" d="M186.27,118.347 L239.577,117.081 L239.577,119.581 L186.27,120.847 L186.27,118.347 "/>
<path class="Beam" fill-rule="evenodd" d="M122.847,128.347 L165.964,122.001 L165.964,124.501 L122.847,130.847 L122.847,128.347 "/>
<path class="Beam" fill-rule="evenodd" d="M66.223,138.347 L109.341,133.27 L109.341,135.77 L66.223,140.847 L66.223,138.347 "/>
<path class="Fingering" d="M486.799,106.093 C486.703,106.093 486.511,106.152 486.223,106.269 L486.223,106.157 L487.663,105.429 L487.727,105.445 L487.727,110.245 C487.727,110.437 487.775,110.562 487.871,110.621 C487.967,110.68 488.172,110.712 488.487,110.717 L488.487,110.837 L486.279,110.837 L486.279,110.717 C486.578,110.706 486.779,110.662 486.883,110.585 C486.987,110.508 487.039,110.344 487.039,110.093 L487.039,106.469 C487.039,106.218 486.959,106.093 486.799,106.093"/>
<path class="Fingering" d="M430.772,98.5931 C430.676,98.5931 430.484,98.6518 430.196,98.7691 L430.196,98.6571 L431.636,97.9291 L431.7,97.9451 L431.7,102.745 C431.7,102.937 431.748,103.062 431.844,103.121 C431.94,103.18 432.145,103.212 432.46,103.217 L432.46,103.337 L430.252,103.337 L430.252,103.217 C430.55,103.206 430.752,103.162 430.856,103.085 C430.96,103.008 431.012,102.844 431.012,102.593 L431.012,98.9691 C431.012,98.7184 430.932,98.5931 430.772,98.5931"/>
<path class="Fingering" d="M416.674,98.9891 L416.674,99.5011 L415.858,99.5011 L415.858,100.837 L415.242,100.837 L415.242,99.5011 L412.994,99.5011 L412.994,98.9891 L415.506,95.4291 L415.858,95.4291 L415.858,98.9891 L416.674,98.9891 M415.234,98.9891 L415.234,96.2451 L413.314,98.9891 L415.234,98.9891 "/>
<path class="Fingering" d="M357.196,134.676 C357.1,134.676 356.908,134.734 356.62,134.852 L356.62,134.74 L358.06,134.012 L358.124,134.028 L358.124,138.828 C358.124,139.02 358.172,139.145 358.268,139.204 C358.364,139.262 358.569,139.294 358.884,139.3 L358.884,139.42 L356.676,139.42 L356.676,139.3 C356.975,139.289 357.176,139.245 357.28,139.168 C357.384,139.09 357.436,138.926 357.436,138.676 L357.436,135.052 C357.436,134.801 357.356,134.676 357.196,134.676"/>
<path class="Fingering" d="M298.244,125.857 C298.148,125.857 297.956,125.916 297.668,126.033 L297.668,125.921 L299.108,125.193 L299.172,125.209 L299.172,130.009 C299.172,130.201 299.22,130.326 299.316,130.385 C299.412,130.444 299.617,130.476 299.932,130.481 L299.932,130.601 L297.724,130.601 L297.724,130.481 C298.023,130.47 298.224,130.426 298.328,130.349 C298.432,130.272 298.484,130.108 298.484,129.857 L298.484,126.233 C298.484,125.982 298.404,125.857 298.244,125.857"/>
<path class="Fingering" d="M262.129,135.05 C262.251,135.05 262.434,135.124 262.677,135.274 C262.919,135.423 263.131,135.498 263.313,135.498 C263.606,135.498 263.854,135.383 264.057,135.154 C264.259,134.924 264.361,134.642 264.361,134.306 C264.361,134.098 264.325,133.914 264.253,133.754 C264.181,133.594 264.089,133.47 263.977,133.382 C263.865,133.294 263.731,133.222 263.577,133.166 C263.422,133.11 263.277,133.074 263.141,133.058 C263.005,133.042 262.859,133.034 262.705,133.034 L262.705,132.93 C262.886,132.866 263.042,132.803 263.173,132.742 C263.303,132.68 263.441,132.598 263.585,132.494 C263.729,132.39 263.839,132.263 263.917,132.114 C263.994,131.964 264.033,131.794 264.033,131.602 C264.033,131.351 263.951,131.146 263.789,130.986 C263.626,130.826 263.414,130.746 263.153,130.746 C262.902,130.746 262.682,130.814 262.493,130.95 C262.303,131.086 262.126,131.3 261.961,131.594 L261.841,131.562 C261.979,131.183 262.167,130.872 262.405,130.63 C262.642,130.387 262.979,130.266 263.417,130.266 C263.785,130.266 264.085,130.367 264.317,130.57 C264.549,130.772 264.665,131.036 264.665,131.362 C264.665,131.58 264.609,131.772 264.497,131.938 C264.385,132.103 264.19,132.279 263.913,132.466 C264.233,132.604 264.483,132.782 264.665,132.998 C264.846,133.214 264.937,133.522 264.937,133.922 C264.937,134.487 264.727,134.939 264.309,135.278 C263.89,135.616 263.363,135.786 262.729,135.786 C262.451,135.786 262.231,135.744 262.069,135.662 C261.906,135.579 261.825,135.468 261.825,135.33 C261.825,135.244 261.853,135.176 261.909,135.126 C261.965,135.075 262.038,135.05 262.129,135.05"/>
<path class="Fingering" d="M241.682,88.5931 C241.586,88.5931 241.394,88.6518 241.106,88.7691 L241.106,88.6571 L242.546,87.9291 L242.61,87.9451 L242.61,92.7451 C242.61,92.9371 242.658,93.0624 242.754,93.1211 C242.85,93.1798 243.055,93.2118 243.37,93.2171 L243.37,93.3371 L241.162,93.3371 L241.162,93.2171 C241.461,93.2064 241.662,93.1624 241.766,93.0851 C241.87,93.0078 241.922,92.8438 241.922,92.5931 L241.922,88.9691 C241.922,88.7184 241.842,88.5931 241.682,88.5931"/>
<path class="Fingering" d="M191.338,98.9891 L191.338,99.5011 L190.522,99.5011 L190.522,100.837 L189.906,100.837 L189.906,99.5011 L187.658,99.5011 L187.658,98.9891 L190.17,95.4291 L190.522,95.4291 L190.522,98.9891 L191.338,98.9891 M189.898,98.9891 L189.898,96.2451 L187.978,98.9891 L189.898,98.9891 "/>
<path class="Fingering" d="M168.07,98.5931 C167.974,98.5931 167.782,98.6518 167.494,98.7691 L167.494,98.6571 L168.934,97.9291 L168.998,97.9451 L168.998,102.745 C168.998,102.937 169.046,103.062 169.142,103.121 C169.238,103.18 169.443,103.212 169.758,103.217 L169.758,103.337 L167.55,103.337 L167.55,103.217 C167.849,103.206 168.05,103.162 168.154,103.085 C168.258,103.008 168.31,102.844 168.31,102.593 L168.31,98.9691 C168.31,98.7184 168.23,98.5931 168.07,98.5931"/>
<path class="Fingering" d="M138.942,107.713 C139.065,107.713 139.247,107.788 139.49,107.937 C139.733,108.086 139.945,108.161 140.126,108.161 C140.419,108.161 140.667,108.046 140.87,107.817 C141.073,107.588 141.174,107.305 141.174,106.969 C141.174,106.761 141.138,106.577 141.066,106.417 C140.994,106.257 140.902,106.133 140.79,106.045 C140.678,105.957 140.545,105.885 140.39,105.829 C140.235,105.773 140.09,105.737 139.954,105.721 C139.818,105.705 139.673,105.697 139.518,105.697 L139.518,105.593 C139.699,105.529 139.855,105.466 139.986,105.405 C140.117,105.344 140.254,105.261 140.398,105.157 C140.542,105.053 140.653,104.926 140.73,104.777 C140.807,104.628 140.846,104.457 140.846,104.265 C140.846,104.014 140.765,103.809 140.602,103.649 C140.439,103.489 140.227,103.409 139.966,103.409 C139.715,103.409 139.495,103.477 139.306,103.613 C139.117,103.749 138.939,103.964 138.774,104.257 L138.654,104.225 C138.793,103.846 138.981,103.536 139.218,103.293 C139.455,103.05 139.793,102.929 140.23,102.929 C140.598,102.929 140.898,103.03 141.13,103.233 C141.362,103.436 141.478,103.7 141.478,104.025 C141.478,104.244 141.422,104.436 141.31,104.601 C141.198,104.766 141.003,104.942 140.726,105.129 C141.046,105.268 141.297,105.445 141.478,105.661 C141.659,105.877 141.75,106.185 141.75,106.585 C141.75,107.15 141.541,107.602 141.122,107.941 C140.703,108.28 140.177,108.449 139.542,108.449 C139.265,108.449 139.045,108.408 138.882,108.325 C138.719,108.242 138.638,108.132 138.638,107.993 C138.638,107.908 138.666,107.84 138.722,107.789 C138.778,107.738 138.851,107.713 138.942,107.713"/>
<path class="Fingering" d="M125.602,106.093 C125.506,106.093 125.314,106.152 125.026,106.269 L125.026,106.157 L126.466,105.429 L126.53,105.445 L126.53,110.245 C126.53,110.437 126.578,110.562 126.674,110.621 C126.77,110.68 126.975,110.712 127.29,110.717 L127.29,110.837 L125.082,110.837 L125.082,110.717 C125.381,110.706 125.582,110.662 125.686,110.585 C125.79,110.508 125.842,110.344 125.842,110.093 L125.842,106.469 C125.842,106.218 125.762,106.093 125.602,106.093"/>
<path class="Fingering" d="M70.3704,119.285 C70.3704,119.002 70.3078,118.752 70.1824,118.533 C70.0571,118.314 69.9051,118.145 69.7264,118.025 C69.5478,117.905 69.3478,117.806 69.1264,117.729 C68.9051,117.652 68.7131,117.601 68.5504,117.577 C68.3878,117.553 68.2451,117.541 68.1224,117.541 C68.0584,117.541 68.0264,117.52 68.0264,117.477 C68.0264,117.461 68.0291,117.448 68.0344,117.437 L68.9064,115.541 L70.5784,115.541 C70.6638,115.541 70.7318,115.528 70.7824,115.501 C70.8331,115.474 70.8878,115.418 70.9464,115.333 L71.0184,115.389 L70.7144,116.101 C70.6931,116.149 70.6318,116.173 70.5304,116.173 L68.9624,116.173 L68.6264,116.853 C69.4051,116.992 69.9838,117.217 70.3624,117.529 C70.7411,117.841 70.9304,118.298 70.9304,118.901 C70.9304,119.216 70.8811,119.496 70.7824,119.741 C70.6838,119.986 70.5584,120.184 70.4064,120.333 C70.2544,120.482 70.0784,120.605 69.8784,120.701 C69.6784,120.797 69.4864,120.862 69.3024,120.897 C69.1184,120.932 68.9331,120.949 68.7464,120.949 C68.4478,120.949 68.2104,120.905 68.0344,120.817 C67.8584,120.729 67.7704,120.608 67.7704,120.453 C67.7704,120.256 67.8851,120.157 68.1144,120.157 C68.2638,120.157 68.4571,120.24 68.6944,120.405 C68.9318,120.57 69.1198,120.653 69.2584,120.653 C69.5731,120.653 69.8371,120.521 70.0504,120.257 C70.2638,119.993 70.3704,119.669 70.3704,119.285"/>
</svg>
